<svg xmlns="http://www.w3.org/2000/svg" xmlns:xlink="http://www.w3.org/1999/xlink" viewBox="0 0 500 500"><defs><clipPath id="freepik--clip-path--inject-19"><path d="M381,187.61c-.5.91-3.36,3.74-7,7.11h0c-7.37,6.87-17.85,16-17.85,16l3.56,12.82c2.85,10.25,6.4,23,6.55,23.43.25.76,4.9,20.51,4.9,20.51v4.54a61.13,61.13,0,0,1-52.67,12.26s.47-11-.28-11.3,0-5-2.62-10.11c-1.57-3-5.82-12.15-8.95-18.88l-.56-1.2-.67-1.44-1-2.1-.32-.69-.14-.32,0,0-.94-2-.22.26c-1.59,1.88-11.43,13.49-16.9,19.79-1.94,2.24-3.32,3.81-3.6,4-1.12.93-28.21,16.68-28.21,16.68s-4.8-8.5-4.12-9.8,21.31-17.16,23.75-19.56S283.15,233,283.15,233s11.37-19.63,12.38-20.39,17.45-10.36,19.15-10.36c0,0,19.77-7.58,22.55-8.35s29.33-16.46,29.33-16.46,3-18.92,3.28-20.94.61-9.67,3-12.29a3,3,0,0,0,.76-1.45l.27-3.13c7.47-3.23,11.52.09,11.52.09v3.39a4.19,4.19,0,0,0,.34,1.33C386.76,146,382.47,184.83,381,187.61Z" style="fill:#bfbfbf;stroke:#263238;stroke-linecap:round;stroke-linejoin:round"></path></clipPath><clipPath id="freepik--clip-path-2--inject-19"><path d="M290.1,348.65c-6.3.9-8.17,24.46-4.17,52.63s12.33,50.29,18.63,49.4,8.17-24.46,4.17-52.63S296.4,347.76,290.1,348.65Zm3.41,14.86c2.94,5.08,5.94,14.6,8.16,26.2a5.13,5.13,0,0,0-.76-1Zm-2.8-1.54c1,3.19,5.87,21.95,7.57,28.43a12.89,12.89,0,0,0-.33,2l-8.52-2.07C288.33,377.51,288.83,367,290.71,362Zm13.1,47.2a5.28,5.28,0,0,0,.46-1.15c1.09,11.76.85,21.74-.56,27.44ZM289.86,394.6l8.12,2.86c0,.68.13,1.37.23,2.08s.22,1.4.35,2.07l-7,5q-.51-2.92-.95-6T289.86,394.6Zm2.48,16.24,7.61-4.36a12.45,12.45,0,0,0,.86,1.82c.17,6.7.66,26.09.64,29.42C298.25,433.45,294.84,423.46,292.34,410.84Z" style="fill:#fff;stroke:#263238;stroke-linecap:round;stroke-linejoin:round"></path></clipPath><clipPath id="freepik--clip-path-3--inject-19"><path d="M285.69,349.28c-6.3.89-8.17,24.45-4.18,52.63s12.34,50.29,18.64,49.39,8.17-24.45,4.17-52.63S292,348.39,285.69,349.28Zm12.38,96.79c-4.87.69-11.71-19.16-15.28-44.34s-2.51-46.16,2.36-46.85,11.71,19.17,15.28,44.35S302.94,445.38,298.07,446.07Z" style="fill:#fff;stroke:#263238;stroke-linecap:round;stroke-linejoin:round"></path></clipPath><clipPath id="freepik--clip-path-4--inject-19"><path d="M277.89,435.79H259.42a2.23,2.23,0,0,1,0-4.46h18.47a8.22,8.22,0,0,0,8.21-8.21V337.45a6.46,6.46,0,0,0-6.46-6.46H264.92a2.23,2.23,0,0,1,0-4.46h14.72a10.93,10.93,0,0,1,10.92,10.92v85.67A12.68,12.68,0,0,1,277.89,435.79Z" style="fill:#fff;stroke:#263238;stroke-linecap:round;stroke-linejoin:round"></path></clipPath><clipPath id="freepik--clip-path-5--inject-19"><path d="M261,344.76V272H181.31v75h2.78v11s70.67,36.78,104.18-1.09l-2.17-12.08Z" style="fill:#757575;stroke:#263238;stroke-linecap:round;stroke-linejoin:round"></path></clipPath><clipPath id="freepik--clip-path-6--inject-19"><path d="M252.09,260.82h-.8a2.23,2.23,0,0,0,0,4.46h.8a7.78,7.78,0,0,1,7.77,7.77v87.19a1.77,1.77,0,0,0-.61-.08l-7,4.55-31.05,22.23L193.1,365.47l-6.51-4.37a2.23,2.23,0,0,0-1.32,4l32.1,24.54-33.28,25.89V273.05a12.23,12.23,0,0,0-12.22-12.23h-.81a2.23,2.23,0,0,0,0,4.46h.81a7.78,7.78,0,0,1,7.77,7.77v147a2.21,2.21,0,0,0,2.23,2.23,2.2,2.2,0,0,0,1.36-.47l37.71-29.33,39.83,29.37a2.23,2.23,0,0,0,3.55-1.8v-147A12.24,12.24,0,0,0,252.09,260.82Zm7.77,154.85-35.05-25.85,35.05-25.1Z" style="fill:#fff;stroke:#263238;stroke-linecap:round;stroke-linejoin:round"></path></clipPath><clipPath id="freepik--clip-path-7--inject-19"><path d="M279.28,237.2S267.45,255.66,265.69,261a35.63,35.63,0,0,0-.65,7.31c-9.29-13.07-22.65-12.36-22.65-12.36l-6.14,11.28-13-4s-10.2,13.64-10.13,17.17-5.24,22.18-5.24,22.18l-1.77,8.14c-4.23-5.29-18.69-4.94-18.69-4.94s5.64-18,9.17-28.19,11.63-12.36,18.66-15.54,16.6-10.26,16.6-10.26,1.94,3,6,.08,28.57-27.1,28.57-27.1C267.81,230.81,279.28,237.2,279.28,237.2Z" style="fill:#87A9E7;stroke:#263238;stroke-linecap:round;stroke-linejoin:round"></path></clipPath><clipPath id="freepik--clip-path-8--inject-19"><path d="M235.51,435.79H216.72a13.53,13.53,0,0,1-13.52-13.51V339.2A8.22,8.22,0,0,0,195,331h-4.21a2.23,2.23,0,0,1,0-4.46H195a12.68,12.68,0,0,1,12.67,12.67v83.08a9.06,9.06,0,0,0,9.06,9.05h18.79a2.23,2.23,0,0,1,0,4.46Z" style="fill:#fff;stroke:#263238;stroke-linecap:round;stroke-linejoin:round"></path></clipPath><clipPath id="freepik--clip-path-9--inject-19"><path d="M189.64,394.44l.57-4.38-9.63,2.68s7.08-31,7.32-31.36-1.71-2.41-1.71-2.41l-8.12,31.24,2.53,7.73Z" style="fill:#fff;stroke:#263238;stroke-linecap:round;stroke-linejoin:round"></path></clipPath><clipPath id="freepik--clip-path-10--inject-19"><path d="M188.31,406.49l-8.06-5.38-4.15,7,1.14,32.25s2.37-1.6,2.2-2-.34-32.2-.34-32.2l8.82,4.7Z" style="fill:#fff;stroke:#263238;stroke-linecap:round;stroke-linejoin:round"></path></clipPath><clipPath id="freepik--clip-path-11--inject-19"><path d="M188,348.52c-6.33-.69-14,21.68-17.08,50s-.51,51.77,5.82,52.47,14-21.67,17.07-50S194.28,349.22,188,348.52Zm-9.52,90.57c-3.13-5-4.07-21.18-2-40s6.49-34.36,10.64-38.61c3.12,5,4.06,21.18,2,40S182.58,434.84,178.44,439.09Z" style="fill:#fff;stroke:#263238;stroke-linecap:round;stroke-linejoin:round"></path></clipPath><clipPath id="freepik--clip-path-12--inject-19"><path d="M178.64,393.23l-2.5-5.24a10.83,10.83,0,0,0-1.21,3.42l1.6,7.69-3.23,7.16a10.85,10.85,0,0,0,.43,3.59l3.58-4.57.26-6.07Z" style="fill:#fff;stroke:#263238;stroke-linecap:round;stroke-linejoin:round"></path></clipPath><clipPath id="freepik--clip-path-13--inject-19"><path d="M181.44,399.64c-.66,6-2.59,10.78-4.3,10.59s-2.57-5.24-1.9-11.27,2.59-10.78,4.3-10.59S182.1,393.6,181.44,399.64Z" style="fill:#fff;stroke:#263238;stroke-linecap:round;stroke-linejoin:round"></path></clipPath><clipPath id="freepik--clip-path-14--inject-19"><path d="M287.24,421.4a19.68,19.68,0,0,1-6.89,4.21c-3,.9-12.33.84-12.33.84l-13.1.89a7.57,7.57,0,0,1-.72-2c-1.23-5.68,1.38-15.46,1.38-15.46l14-3.37s.42,2,.95,3.85c.43,1.57.94,3.07,1.34,3.3.88.54,13.55,3.22,14.44,5A6.87,6.87,0,0,1,287.24,421.4Z" style="fill:#fff;stroke:#263238;stroke-linecap:round;stroke-linejoin:round"></path></clipPath><clipPath id="freepik--clip-path-15--inject-19"><path d="M242.34,426.76l-20.51,2.39a10.94,10.94,0,0,1-1.58-4.47c-.06-1.63,3.39-7.89,4.75-10.83a5.23,5.23,0,0,0,.54-1.45c0-1.06,5-8.4,5-8.4l13.84,1.53s-.61,3.82-.87,5.82c-.2,1.49.68,4.47,1.31,7.36.22,1,.41,2,.52,2.88C245.77,425.14,242.34,426.76,242.34,426.76Z" style="fill:#fff;stroke:#263238;stroke-linecap:round;stroke-linejoin:round"></path></clipPath><clipPath id="freepik--clip-path-16--inject-19"><path d="M277,359.33c-.59,2.52-1.23,5.61-1.83,8.8h0c-1.52,8-2.85,16.64-3.1,18.55-.35,2.66-2.12,12.84-1.41,14.25s1.41,7.39,1.41,7.39a36,36,0,0,0-5.6-.62c-3.22.28-12.38,3.64-12.38,3.64s-1.77-4.77,0-9a12.1,12.1,0,0,0,.7-7.64l2.11-25.44c-1.75,8.18-4.58,19.82-4.58,19.82l-4.57,5.62,0,.11h0L245.35,408s-6.95,2.19-9.28,1.83c-2.15-.33-7.64-4.15-7.64-4.15l4.19-7.93a58.41,58.41,0,0,1,.28-8.68c1.07-8.84,2.21-18.08,2.79-22.72a.62.62,0,0,1,0-.09c.23-1.86.37-2.95.37-2.95s-20.45-2.94-23-8.95c-1.63-3.86-1.63-11.3-1.45-16.11a6.32,6.32,0,0,1,4.62-5.8,133.16,133.16,0,0,1,19.1-3.9l.69-.1c2-1.79,9.54-4.42,11.65-4.17a37.42,37.42,0,0,1,7.36,2.37h0l.49.22c9.07-.83,11.53.94,11.53.94s.83.35,2,.9c2.56,1.2,6.79,3.35,7.86,5C280.48,339.09,279.1,350.52,277,359.33Z" style="fill:#87A9E7;stroke:#263238;stroke-linecap:round;stroke-linejoin:round"></path></clipPath><clipPath id="freepik--clip-path-17--inject-19"><path d="M176,191.86c0,.12-2.2,4.9-5.26,11.46-3.64,7.83-8.53,18.18-12.53,26.22-3.4,6.85-6.15,12-6.91,12.46l2.38-35.59A85.19,85.19,0,0,0,164.14,186c1.32-4.14,3.29-35.47,3.29-35.47,3.64,1.18,8.62,0,8.62,0S177,186.07,176,191.86Z" style="fill:#87A9E7;stroke:#263238;stroke-linecap:round;stroke-linejoin:round"></path></clipPath><clipPath id="freepik--clip-path-18--inject-19"><path d="M163.25,431.29s3.28-2.68,10.75-2.15c0,0,1.57,9.33,2.89,12s7.14,7.41,8.22,8.22S186.5,453,186.5,453H164a76,76,0,0,1,.46-12Z" style="fill:#fff;stroke:#263238;stroke-linecap:round;stroke-linejoin:round"></path></clipPath><clipPath id="freepik--clip-path-19--inject-19"><path d="M119.46,432.4s3.57-2.55,11-2c0,0,.54,8.88,1.55,11.47s6.32,7.05,7.3,7.82,1,3.45,1,3.45H117.8a71.3,71.3,0,0,1,1.78-11.41Z" style="fill:#fff;stroke:#263238;stroke-linecap:round;stroke-linejoin:round"></path></clipPath><clipPath id="freepik--clip-path-20--inject-19"><path d="M163.69,268.51c.4,2.8-19.71,13-31,12.83a11.7,11.7,0,0,1-3.67-.55c-2.67-.92-1.4-12.21-1.4-12.21s-7.32-9.31-13.11-17.39c-3.56-5-6.54-9.49-6.88-11.09-.54-2.53,7.64-10,14.14-14.21,21.55-13.86,31.84-19.48,31.84-19.48s2.32,2.54,3.31,8l1,8.44c1.72,7,3.38,14.33,3.75,18.21.84,8.66-1.18,18.83-1.18,18.83S163.25,265.38,163.69,268.51Z" style="fill:#87A9E7;stroke:#263238;stroke-linecap:round;stroke-linejoin:round"></path></clipPath></defs><g id="freepik--Floor--inject-19"><line x1="26.56" y1="455.5" x2="457.1" y2="455.5" style="fill:none;stroke:#263238;stroke-linecap:round;stroke-linejoin:round"></line></g><g id="freepik--Landscape--inject-19"><circle cx="237.74" cy="88.09" r="18.83" transform="translate(7.34 193.91) rotate(-45)" style="fill:none;stroke:#263238;stroke-linecap:round;stroke-linejoin:round"></circle><line x1="237.74" y1="135.83" x2="237.74" y2="137.93" style="fill:none;stroke:#263238;stroke-linecap:round;stroke-linejoin:round"></line><line x1="237.74" y1="121.97" x2="237.74" y2="132.98" style="fill:none;stroke:#263238;stroke-linecap:round;stroke-linejoin:round"></line><line x1="237.74" y1="112.43" x2="237.74" y2="119.22" style="fill:none;stroke:#263238;stroke-linecap:round;stroke-linejoin:round"></line><line x1="237.74" y1="49.38" x2="237.74" y2="65.3" style="fill:none;stroke:#263238;stroke-linecap:round;stroke-linejoin:round"></line><line x1="237.74" y1="44.59" x2="237.74" y2="46.91" style="fill:none;stroke:#263238;stroke-linecap:round;stroke-linejoin:round"></line><line x1="237.74" y1="38.26" x2="237.74" y2="41.71" style="fill:none;stroke:#263238;stroke-linecap:round;stroke-linejoin:round"></line><line x1="203.49" y1="88.09" x2="187.9" y2="88.09" style="fill:none;stroke:#263238;stroke-linecap:round;stroke-linejoin:round"></line><line x1="209.76" y1="88.09" x2="206.34" y2="88.09" style="fill:none;stroke:#263238;stroke-linecap:round;stroke-linejoin:round"></line><line x1="213.4" y1="88.09" x2="212.51" y2="88.09" style="fill:none;stroke:#263238;stroke-linecap:round;stroke-linejoin:round"></line><path d="M273.08,88.09H260.53" style="fill:none;stroke:#263238;stroke-linecap:round;stroke-linejoin:round"></path><line x1="281.24" y1="88.09" x2="275.54" y2="88.09" style="fill:none;stroke:#263238;stroke-linecap:round;stroke-linejoin:round"></line><line x1="287.57" y1="88.09" x2="284.12" y2="88.09" style="fill:none;stroke:#263238;stroke-linecap:round;stroke-linejoin:round"></line><line x1="213.52" y1="63.87" x2="202.5" y2="52.85" style="fill:none;stroke:#263238;stroke-linecap:round;stroke-linejoin:round"></line><line x1="217.95" y1="68.31" x2="215.53" y2="65.89" style="fill:none;stroke:#263238;stroke-linecap:round;stroke-linejoin:round"></line><line x1="220.53" y1="70.88" x2="219.9" y2="70.26" style="fill:none;stroke:#263238;stroke-linecap:round;stroke-linejoin:round"></line><path d="M262.73,113.08l-8.88-8.87" style="fill:none;stroke:#263238;stroke-linecap:round;stroke-linejoin:round"></path><line x1="268.5" y1="118.85" x2="264.47" y2="114.82" style="fill:none;stroke:#263238;stroke-linecap:round;stroke-linejoin:round"></line><line x1="272.98" y1="123.33" x2="270.53" y2="120.89" style="fill:none;stroke:#263238;stroke-linecap:round;stroke-linejoin:round"></line><line x1="209.35" y1="116.48" x2="202.5" y2="123.33" style="fill:none;stroke:#263238;stroke-linecap:round;stroke-linejoin:round"></line><line x1="213.78" y1="112.05" x2="211.36" y2="114.47" style="fill:none;stroke:#263238;stroke-linecap:round;stroke-linejoin:round"></line><line x1="220.53" y1="105.3" x2="215.73" y2="110.1" style="fill:none;stroke:#263238;stroke-linecap:round;stroke-linejoin:round"></line><line x1="256.17" y1="69.66" x2="253.85" y2="71.98" style="fill:none;stroke:#263238;stroke-linecap:round;stroke-linejoin:round"></line><line x1="268.5" y1="57.33" x2="257.91" y2="67.92" style="fill:none;stroke:#263238;stroke-linecap:round;stroke-linejoin:round"></line><line x1="272.98" y1="52.85" x2="270.53" y2="55.3" style="fill:none;stroke:#263238;stroke-linecap:round;stroke-linejoin:round"></line><line x1="223" y1="122.01" x2="222.36" y2="123.5" style="fill:none;stroke:#263238;stroke-linecap:round;stroke-linejoin:round"></line><line x1="227.28" y1="112.17" x2="223.88" y2="119.99" style="fill:none;stroke:#263238;stroke-linecap:round;stroke-linejoin:round"></line><path d="M229.47,107.13l-1.34,3.08" style="fill:none;stroke:#263238;stroke-linecap:round;stroke-linejoin:round"></path><path d="M249.69,60.58q-1.5,3.44-3,6.87" style="fill:none;stroke:#263238;stroke-linecap:round;stroke-linejoin:round"></path><line x1="251.16" y1="57.18" x2="250.45" y2="58.83" style="fill:none;stroke:#263238;stroke-linecap:round;stroke-linejoin:round"></line><line x1="253.12" y1="52.68" x2="252.05" y2="55.14" style="fill:none;stroke:#263238;stroke-linecap:round;stroke-linejoin:round"></line><line x1="213.4" y1="77.52" x2="202.33" y2="72.71" style="fill:none;stroke:#263238;stroke-linecap:round;stroke-linejoin:round"></line><path d="M217.82,79.44l-2.39-1" style="fill:none;stroke:#263238;stroke-linecap:round;stroke-linejoin:round"></path><path d="M262.85,99l-6.09-2.64" style="fill:none;stroke:#263238;stroke-linecap:round;stroke-linejoin:round"></path><line x1="268.65" y1="101.52" x2="264.6" y2="99.76" style="fill:none;stroke:#263238;stroke-linecap:round;stroke-linejoin:round"></line><line x1="273.15" y1="103.47" x2="270.69" y2="102.41" style="fill:none;stroke:#263238;stroke-linecap:round;stroke-linejoin:round"></line><line x1="228" y1="63.41" x2="223.57" y2="52.18" style="fill:none;stroke:#263238;stroke-linecap:round;stroke-linejoin:round"></line><line x1="229.79" y1="67.93" x2="228.81" y2="65.46" style="fill:none;stroke:#263238;stroke-linecap:round;stroke-linejoin:round"></line><path d="M247.78,113.56l-2.43-6.17" style="fill:none;stroke:#263238;stroke-linecap:round;stroke-linejoin:round"></path><line x1="250.1" y1="119.44" x2="248.48" y2="115.34" style="fill:none;stroke:#263238;stroke-linecap:round;stroke-linejoin:round"></line><line x1="251.9" y1="124.01" x2="250.92" y2="121.52" style="fill:none;stroke:#263238;stroke-linecap:round;stroke-linejoin:round"></line><line x1="208.8" y1="99.5" x2="201.82" y2="102.25" style="fill:none;stroke:#263238;stroke-linecap:round;stroke-linejoin:round"></line><line x1="213.32" y1="97.72" x2="210.86" y2="98.69" style="fill:none;stroke:#263238;stroke-linecap:round;stroke-linejoin:round"></line><line x1="269.09" y1="75.73" x2="258.3" y2="79.98" style="fill:none;stroke:#263238;stroke-linecap:round;stroke-linejoin:round"></line><line x1="273.65" y1="73.93" x2="271.16" y2="74.91" style="fill:none;stroke:#263238;stroke-linecap:round;stroke-linejoin:round"></line><path d="M120.76,123.31l-5.64.11s-6.53-14.26-19-8.37a18.46,18.46,0,0,0-9.76,11.45s-10.34-.84-14,6.72L54.12,136.4" style="fill:none;stroke:#263238;stroke-linecap:round;stroke-linejoin:round"></path><line x1="148.52" y1="122.73" x2="125.67" y2="123.21" style="fill:none;stroke:#263238;stroke-linecap:round;stroke-linejoin:round"></line><path d="M95.81,90.28c2.4-2.75,6.5-5.15,13.44-4.74,15.33.9,16.38,15.14,16.38,15.14s14.89-4.39,16.68,11c0,0,9.88-1.38,12.16,4.89l36.31,5.29-35.34.74" style="fill:none;stroke:#263238;stroke-linecap:round;stroke-linejoin:round"></path><path d="M92.47,97.44a13,13,0,0,1,.76-2.81" style="fill:none;stroke:#263238;stroke-linecap:round;stroke-linejoin:round"></path><line x1="146.32" y1="160.26" x2="143.44" y2="160.4" style="fill:none;stroke:#263238;stroke-linecap:round;stroke-linejoin:round"></line><path d="M79.27,139.46l34.82,2a19.63,19.63,0,0,1,14.24-6.3c9.17,0,12.95,9.11,12.95,9.11s7.85-2.44,12.82,1.88,5.38,8.67,5.38,8.67l59.39,2L152.68,160" style="fill:none;stroke:#263238;stroke-linecap:round;stroke-linejoin:round"></path><line x1="64.53" y1="138.61" x2="72.56" y2="139.07" style="fill:none;stroke:#263238;stroke-linecap:round;stroke-linejoin:round"></line><path d="M352.26,146.81c2-.21,3.12-.33,2.85-.31" style="fill:none;stroke:#263238;stroke-linecap:round;stroke-linejoin:round"></path><path d="M226,173.92c3.49-5.67,10.12-13,21.14-13.52,18-.77,20.89,10.87,20.89,10.87s3.69-17.05,17.41-21.46,18.89,1.71,18.89,1.71,25.71-2.5,40.55-4" style="fill:none;stroke:#263238;stroke-linecap:round;stroke-linejoin:round"></path><path d="M222.85,180.43a28.65,28.65,0,0,1,1.27-3" style="fill:none;stroke:#263238;stroke-linecap:round;stroke-linejoin:round"></path><polyline points="413.76 130.44 433.85 132.4 397.55 134.4" style="fill:none;stroke:#263238;stroke-linecap:round;stroke-linejoin:round"></polyline><path d="M342.65,110.1a16.36,16.36,0,0,1,9.28-5.89c12-2.57,18.55,6.35,19.43,13,0,0,10.75-11.59,20.31-4.75s7.86,16.62,7.86,16.62l10.17,1" style="fill:none;stroke:#263238;stroke-linecap:round;stroke-linejoin:round"></path><path d="M292.49,137.75l18.45-2.45s-.44-7.39,8.47-12.42,17.61-.77,17.61-.77a31.32,31.32,0,0,1,3.27-8.55" style="fill:none;stroke:#263238;stroke-linecap:round;stroke-linejoin:round"></path><polyline points="305.39 142.78 254.63 142.78 288.79 138.24" style="fill:none;stroke:#263238;stroke-linecap:round;stroke-linejoin:round"></polyline><line x1="318.48" y1="142.78" x2="314.41" y2="142.78" style="fill:none;stroke:#263238;stroke-linecap:round;stroke-linejoin:round"></line><line x1="69.6" y1="189.31" x2="66.19" y2="189.78" style="fill:none;stroke:#263238;stroke-linecap:round;stroke-linejoin:round"></line><line x1="82.6" y1="187.52" x2="76.38" y2="188.38" style="fill:none;stroke:#263238;stroke-linecap:round;stroke-linejoin:round"></line><path d="M207.26,203.24l-7.94.22a15.75,15.75,0,0,0-9.57-12c-8.12-3.35-17.92,1.15-17.92,1.15s.33-20.15-21.6-22.42-25.59,11.54-25.59,11.54L85.4,187.14" style="fill:none;stroke:#263238;stroke-linecap:round;stroke-linejoin:round"></path><line x1="258.28" y1="201.83" x2="212.57" y2="203.1" style="fill:none;stroke:#263238;stroke-linecap:round;stroke-linejoin:round"></line><path d="M402,200.18s-15.16-29.5-46.91-26.78-37.66,29.27-37.66,29.27-13.92-10.38-21-1.9l-34.95,1" style="fill:none;stroke:#263238;stroke-linecap:round;stroke-linejoin:round"></path><polyline points="443.18 441.61 443.18 411.24 433.85 411.24 433.85 421.59 428.72 421.59 428.72 376.61 417.92 376.61 417.92 388.05 413.75 388.05 402.56 399.23 397.81 399.23 397.81 343.21 395.18 343.21 395.18 370.6 385.9 370.6 385.9 416.28 371.36 416.28 371.36 427.34 362.19 427.34 362.19 387.99 353.76 379.56 353.76 364.72 350.1 364.72 350.1 396.07 337.59 396.07 337.59 422.1 331.06 415.57 331.06 376.61 322.2 376.61 322.2 366.29 314.21 358.29 314.21 323.78 311.62 326.36 311.62 398.05 291.61 398.05 291.61 410.84 275.57 410.84 275.57 368.07 262.98 368.07 262.98 384.9 259.28 384.9 259.28 404 244.39 404 244.39 342.63 224.2 342.63 224.2 318.05 220.25 318.05 220.25 340.42 210.22 340.42 210.22 358.41 215.55 363.74 215.55 385.89 205.55 385.89 205.55 402.35 186.13 402.35 186.13 354.99 182.68 351.54 182.68 362.57 168.51 376.74 168.51 388.05 146.18 388.05 146.18 396.6 134.66 396.6 134.66 355.71 129.04 355.71 129.04 370.6 120.75 370.6 120.75 383.65 109.1 383.65 109.1 355.71 103.39 355.71 103.39 399.3 93.23 409.45 93.23 424.68 82.6 424.68 82.6 390.19 79.49 390.19 79.49 406.61 69.6 406.61 69.6 428.32 58.31 428.32 58.31 447.47" style="fill:none;stroke:#263238;stroke-linecap:round;stroke-linejoin:round"></polyline></g><g id="freepik--character-3--inject-19"><path d="M356.3,344.25s3.28,14.14,3,17.21,2,8.12,5.05,8.88,12-.16,14-3.11c3.79-5.73.51-20.83,0-26.17S356.3,344.25,356.3,344.25Z" style="fill:#87A9E7;stroke:#263238;stroke-linecap:round;stroke-linejoin:round"></path><path d="M376.23,350.5s1.12,13.29-.76,16.43" style="fill:none;stroke:#263238;stroke-linecap:round;stroke-linejoin:round"></path><path d="M362.19,352.69s.8,13.61,2.95,15.38" style="fill:#87A9E7;stroke:#263238;stroke-linecap:round;stroke-linejoin:round"></path><path d="M360.34,355s13.49-2.55,15.39-2.55,2.14.67,2.27,2.55-13.49,2.25-15.26,3.26-.13,3.29-.13,3.92,12.86.25,14.13-.76.88,2.28.38,3.16-12.52,2.15-14.93,1.64" style="fill:#87A9E7;stroke:#263238;stroke-linecap:round;stroke-linejoin:round"></path><path d="M320.66,436.91s.5,3.54-1.52,5.9-11.87,4.61-12.37,6.51a18.12,18.12,0,0,0,0,5.44h29.71s1.51-3.06,1-11S320.66,436.91,320.66,436.91Z" style="fill:#87A9E7;stroke:#263238;stroke-linecap:round;stroke-linejoin:round"></path><path d="M322.2,267.19l-2.5,9.8s-.14,56.79-.67,63.13a52.24,52.24,0,0,0,1.25,18.23c1.64,6.31-1.63,19.84,0,22.93s.89,40.23-1,45,.21,12.32.21,12.32l18,5.17s3-11.38,1.89-14.15,1.27-2.53.26-12.5,8.08-96.48,8.84-95.13,6,18.44,6,19.22-2.07,2.78-1.31,3.67-.13,4.68,3.66,6.57c4.94,2.46,13.47.86,16.5-.92s8.47-3.87,8.4-6.54,0-5.27-1.88-5.55c0,0,.49-11.36-1-16.45s-4.55-20.41-4.55-25.64-4.86-32.48-4.86-32.48Z" style="fill:#263238"></path><path d="M358.34,307c-2.28,1.89-14.79,11.3-17.82,18.53" style="fill:none;stroke:#fff;stroke-linecap:round;stroke-linejoin:round"></path><path d="M345.08,294.72c.52,3.66.84,7.35,1.22,11" style="fill:none;stroke:#fff;stroke-linecap:round;stroke-linejoin:round"></path><path d="M343.81,285.42c.15,1.53.38,3.06.6,4.58" style="fill:none;stroke:#fff;stroke-linecap:round;stroke-linejoin:round"></path><path d="M365.14,280.11s2.42,7.71,6.22,10.37" style="fill:none;stroke:#fff;stroke-linecap:round;stroke-linejoin:round"></path><path d="M324.47,280.74s.51,9.1-2.91,13.53" style="fill:none;stroke:#fff;stroke-linecap:round;stroke-linejoin:round"></path><path d="M360.34,316.31c-2.38.32-8.7.45-11.73,3.48" style="fill:none;stroke:#fff;stroke-linecap:round;stroke-linejoin:round"></path><path d="M330.54,353.1c-1.08,1.2-3.41,4.34-5.31,3.85" style="fill:none;stroke:#fff;stroke-linecap:round;stroke-linejoin:round"></path><path d="M343.81,335.72a143.69,143.69,0,0,1-10.22,13.82" style="fill:none;stroke:#fff;stroke-linecap:round;stroke-linejoin:round"></path><path d="M324.47,387c.51,1.65,6.95,19.5,9.1,20.49" style="fill:none;stroke:#fff;stroke-linecap:round;stroke-linejoin:round"></path><path d="M331.06,431.62a40.83,40.83,0,0,0,4.28,2.16" style="fill:none;stroke:#fff;stroke-linecap:round;stroke-linejoin:round"></path><path d="M322.58,426.71l4,2.34" style="fill:none;stroke:#fff;stroke-linecap:round;stroke-linejoin:round"></path><path d="M356.3,341.57s12.7,2.15,20.26-2.78" style="fill:none;stroke:#fff;stroke-linecap:round;stroke-linejoin:round"></path><path d="M369.17,343.22s-3,7.49-7.92,7.28" style="fill:none;stroke:#fff;stroke-linecap:round;stroke-linejoin:round"></path><path d="M378,340.42a5.33,5.33,0,0,1-2,6.82" style="fill:none;stroke:#fff;stroke-linecap:round;stroke-linejoin:round"></path><path d="M381,187.61c-.5.91-3.36,3.74-7,7.11h0c-7.37,6.87-17.85,16-17.85,16l3.56,12.82c2.85,10.25,6.4,23,6.55,23.43.25.76,4.9,20.51,4.9,20.51v4.54a61.13,61.13,0,0,1-52.67,12.26s.47-11-.28-11.3,0-5-2.62-10.11c-1.57-3-5.82-12.15-8.95-18.88l-.56-1.2-.67-1.44-1-2.1-.32-.69-.14-.32,0,0-.94-2-.22.26c-1.59,1.88-11.43,13.49-16.9,19.79-1.94,2.24-3.32,3.81-3.6,4-1.12.93-28.21,16.68-28.21,16.68s-4.8-8.5-4.12-9.8,21.31-17.16,23.75-19.56S283.15,233,283.15,233s11.37-19.63,12.38-20.39,17.45-10.36,19.15-10.36c0,0,19.77-7.58,22.55-8.35s29.33-16.46,29.33-16.46,3-18.92,3.28-20.94.61-9.67,3-12.29a3,3,0,0,0,.76-1.45l.27-3.13c7.47-3.23,11.52.09,11.52.09v3.39a4.19,4.19,0,0,0,.34,1.33C386.76,146,382.47,184.83,381,187.61Z" style="fill:#bfbfbf"></path><g style="clip-path:url(#freepik--clip-path--inject-19)"><path d="M298,227.56a67.78,67.78,0,0,0,4.76,8.92c-1.59,1.88-11.43,13.49-16.9,19.79,2.11-6.9,6.95-12.42,8.38-14.09,1.77-2.08-.25-2.47-1.76-6s5.29.46,4.79-2.32S297.1,225.38,298,227.56Z" style="fill-opacity:0.7000000000000001;opacity:0.2"></path><path d="M374,194.73c-7.37,6.87-17.85,16-17.85,16l3.56,12.82c-5.35-3.69-8.84-16-7.77-16.38,7.72-2.75,21.91-12.35,22.06-12.49Z" style="fill-opacity:0.7000000000000001;opacity:0.2"></path></g><path d="M381,187.61c-.5.91-3.36,3.74-7,7.11h0c-7.37,6.87-17.85,16-17.85,16l3.56,12.82c2.85,10.25,6.4,23,6.55,23.43.25.76,4.9,20.51,4.9,20.51v4.54a61.13,61.13,0,0,1-52.67,12.26s.47-11-.28-11.3,0-5-2.62-10.11c-1.57-3-5.82-12.15-8.95-18.88l-.56-1.2-.67-1.44-1-2.1-.32-.69-.14-.32,0,0-.94-2-.22.26c-1.59,1.88-11.43,13.49-16.9,19.79-1.94,2.24-3.32,3.81-3.6,4-1.12.93-28.21,16.68-28.21,16.68s-4.8-8.5-4.12-9.8,21.31-17.16,23.75-19.56S283.15,233,283.15,233s11.37-19.63,12.38-20.39,17.45-10.36,19.15-10.36c0,0,19.77-7.58,22.55-8.35s29.33-16.46,29.33-16.46,3-18.92,3.28-20.94.61-9.67,3-12.29a3,3,0,0,0,.76-1.45l.27-3.13c7.47-3.23,11.52.09,11.52.09v3.39a4.19,4.19,0,0,0,.34,1.33C386.76,146,382.47,184.83,381,187.61Z" style="fill:none;stroke:#263238;stroke-linecap:round;stroke-linejoin:round"></path><path d="M388.28,116.59a2.78,2.78,0,0,0-1.59-.85,12.43,12.43,0,0,0-3.16,1.83c-2.33,1.6-5.06,3.7-5.06,3.7l5.31,11a5.87,5.87,0,0,0,4.67-1.75h0a10.84,10.84,0,0,0,2-2.59Z" style="fill:#fff;stroke:#263238;stroke-linecap:round;stroke-linejoin:round"></path><path d="M385.64,69.05a2.4,2.4,0,0,0-1.42,3.07c3.63,9.85,6.79,18.46,9.54,26l-16.16,6.77c-3.47-7.26-7.39-15.56-11.86-25a2.4,2.4,0,0,0-4.34,2c19.83,42.05,28.91,61,36.23,69.78,5.63,6.73,43.38,92.83,56.31,122.71a2.38,2.38,0,0,0,3.12,1.26h0a2.39,2.39,0,0,0,1.13-1,2.31,2.31,0,0,0,1.53-.08h0a2.4,2.4,0,0,0,1.29-3.11c-12.24-30.17-47.16-117.46-48-126.19-1.12-11.37-8.27-31.13-24.35-74.76A2.38,2.38,0,0,0,385.64,69.05Zm9.75,33.61C403,123.8,406.94,136,408.07,144l-7.85,3.29c-4.84-6.35-10.81-17.75-20.54-38Zm38.46,113.81c-11.82-26.5-25.18-55.69-30.8-65.22l5.89-2.47C411.8,159.47,423.25,189.46,433.85,216.47Z" style="fill:#87A9E7;stroke:#263238;stroke-linecap:round;stroke-linejoin:round"></path><path d="M359.63,82.54s3-6.75,13.29-11.05,17.48-1.85,17.48-1.85" style="fill:none;stroke:#263238;stroke-linecap:round;stroke-linejoin:round;stroke-width:7px"></path><path d="M461,271.92h7.4a0,0,0,0,1,0,0v34.8a1.48,1.48,0,0,1-1.48,1.48h-4.44a1.48,1.48,0,0,1-1.48-1.48v-34.8A0,0,0,0,1,461,271.92Z" transform="translate(-76 202.16) rotate(-22.74)" style="fill:#263238"></path><path d="M390.43,121.17s1.31.12.93,3.34a4.26,4.26,0,0,1,.1,2.76c-.2.53-1.52,1.77-3.82,1.78-.53,0-.5-1.37-.27-1.41-.23,0-1.11.09-1.42-.62s.64-3,.72-3.17a1.06,1.06,0,0,1-1.61-.37c-.61-1.09.34-2.58.34-2.58a1.54,1.54,0,0,1-1.92-1.28,5.84,5.84,0,0,1,0-2.05,12.43,12.43,0,0,1,3.16-1.83,4.26,4.26,0,0,1,1.9.48,15.49,15.49,0,0,1,.53,2.14C390.61,118.29,391.05,119.85,390.43,121.17Z" style="fill:#fff;stroke:#263238;stroke-linecap:round;stroke-linejoin:round"></path><path d="M383.76,126c.78-2.16-1.08-5-1.25-5.3s1.57-1.51,1.57-1.51a3.07,3.07,0,0,0,3.06-1.14s-2.86-1.2-3.49-1.62-4.93,2.15-5.79,3.63-.27,10.25-.27,10.25l-1.8,9.32a11.54,11.54,0,0,0,8.69.65l.78-7.59" style="fill:#fff;stroke:#263238;stroke-linecap:round;stroke-linejoin:round"></path><path d="M385.4,120.9a20.43,20.43,0,0,1,2.24-1.7" style="fill:none;stroke:#263238;stroke-linecap:round;stroke-linejoin:round"></path><line x1="386.67" y1="123.85" x2="388.88" y2="121.91" style="fill:none;stroke:#263238;stroke-linecap:round;stroke-linejoin:round"></line><line x1="387.37" y1="127.64" x2="389.35" y2="126.04" style="fill:none;stroke:#263238;stroke-linecap:round;stroke-linejoin:round"></line><path d="M251.05,267.19l-3.23,1.48s-.69,6.3,3.23,8.33l3.58-1.15s-.83-5-2.2-6.82" style="fill:#bfbfbf;stroke:#263238;stroke-linecap:round;stroke-linejoin:round"></path><path d="M248.42,270l-6.75,1.39s-6.63,1.89-8,2-3.38,6.43-3.26,7.44,1.26,4,2.42,3.21c.8-.53-.52-3.63-.52-3.63a16.39,16.39,0,0,0,1.82-2.5s4.4-1,5-1.21.5,1.57.19,2.18-3.2,2.63-3.45,3.85c-.31,1.58.9,1.85.9,1.85s2.6-2.86,4.76-3,4.93-3,6-3.75a29.18,29.18,0,0,1,3.56-1.9S250.36,272,248.42,270Z" style="fill:#fff;stroke:#263238;stroke-linecap:round;stroke-linejoin:round"></path><path d="M297.3,225.14s1.75,7.39,5.71,11.08" style="fill:none;stroke:#263238;stroke-linecap:round;stroke-linejoin:round"></path><path d="M292.37,231.56s4.93,3.82,7.79,4.24" style="fill:none;stroke:#263238;stroke-linecap:round;stroke-linejoin:round"></path><path d="M273.71,247.63s4.58,3.11,3.56,7.74" style="fill:none;stroke:#263238;stroke-linecap:round;stroke-linejoin:round"></path><path d="M314.41,211.07s11.07,6.28,17.55-4.34" style="fill:none;stroke:#263238;stroke-linecap:round;stroke-linejoin:round"></path><path d="M347.72,196.12s2.24,11.1,8.42,14.65" style="fill:none;stroke:#263238;stroke-linecap:round;stroke-linejoin:round"></path><path d="M366.55,177.46s4.3,4.74,6.39.8" style="fill:none;stroke:#263238;stroke-linecap:round;stroke-linejoin:round"></path><path d="M373.62,142.78s3.79,3,9.8,1.36" style="fill:none;stroke:#263238;stroke-linecap:round;stroke-linejoin:round"></path><path d="M332,200.55s-4,7.24-8.41,8.69c-5.59,1.83-9.14-3.23-9.14-3.23l-.66-3.43L312.11,194l14.45-3.54a16,16,0,0,0,.38,3.53C328.16,199.33,332,200.55,332,200.55Z" style="fill:#fff;stroke:#263238;stroke-linecap:round;stroke-linejoin:round"></path><path d="M326.94,194a15.62,15.62,0,0,1-13.19,8.57L312.11,194l14.45-3.54A16,16,0,0,0,326.94,194Z" style="fill:#263238"></path><path d="M329.74,179.8s3-2.15,3.65-.68-.33.76-.53,3.56-.77,5.71-3.21,5.73S328.08,180.82,329.74,179.8Z" style="fill:#fff;stroke:#263238;stroke-linecap:round;stroke-linejoin:round"></path><path d="M306.75,179.77s-2.78-2.48-3.55-1.08.25.79.14,3.59.13,5.77,2.55,6.05S308.29,181,306.75,179.77Z" style="fill:#fff;stroke:#263238;stroke-linecap:round;stroke-linejoin:round"></path><path d="M317.67,163.8c-6.55,0-9.85,1.27-11.37,6.23-2.31,7.58.43,20.28,1.18,22.58.67,2,6.24,5.42,9.64,5.59,2.27.12,8.93-2.71,10.31-5,.73-1.22,4.61-14.08,2.15-22.28C328.07,165.9,324,163.74,317.67,163.8Z" style="fill:#fff;stroke:#263238;stroke-linecap:round;stroke-linejoin:round"></path><path d="M312.11,172.92a5.2,5.2,0,0,0-4.29,2.81" style="fill:none;stroke:#263238;stroke-linecap:round;stroke-linejoin:round"></path><path d="M319.41,172.8a5.12,5.12,0,0,1,5,2.29" style="fill:none;stroke:#263238;stroke-linecap:round;stroke-linejoin:round"></path><path d="M310.3,178.08c0,.49.3.89.66.88s.63-.41.62-.9-.3-.88-.65-.88S310.3,177.59,310.3,178.08Z" style="fill:#263238"></path><path d="M321,177.94c0,.49.3.88.65.88s.64-.41.63-.9-.3-.89-.65-.88S321,177.45,321,177.94Z" style="fill:#263238"></path><path d="M314.48,175.85c.63.69-.19,6.82-1,7.66s.5,2,2.2,2.09" style="fill:none;stroke:#263238;stroke-linecap:round;stroke-linejoin:round"></path><path d="M312.32,189s7.76-.59,9.58-2.56c0,0,1.46,3.5-2,4.93S312.86,193.06,312.32,189Z" style="fill:none;stroke:#263238;stroke-linecap:round;stroke-linejoin:round"></path><path d="M315,167.89s6.92-1.13,7.18-1.13,3.67,1,4.21,2,.63,5.18.63,5.18,1.16,2.21,1.88,3.8a20.24,20.24,0,0,1,1,4.93l2-5.3s.48-10.41-1-12.38S315,156.71,315,156.71s-.32,2.61-.61,2.43-7-3.41-7-3.41l.43,4.39-3.75.18v5.86s-.64,9.81,1.3,15.26a32.55,32.55,0,0,1,1.75-7.45s-.09-5,.27-5.59S308.91,166.42,315,167.89Z" style="fill:#263238"></path><path d="M307.92,452.4c.38,0,12.25-.38,14.15,0s4.3,1.26,5.81.63,7.46-.8,7.46-.8" style="fill:none;stroke:#263238;stroke-linecap:round;stroke-linejoin:round"></path><path d="M313.46,445.81s5.2-.49,7.22.84l2.65-1.07s-2.71-2.26-5.4-1.83" style="fill:none;stroke:#263238;stroke-linecap:round;stroke-linejoin:round"></path><path d="M320,441.55s3.26.27,4.52,2.15l2.66-2.15s-4.07-2.39-6.65-1.52" style="fill:none;stroke:#263238;stroke-linecap:round;stroke-linejoin:round"></path><path d="M354.47,252.45s-9.45,19.84-24.08,23.4" style="fill:none;stroke:#263238;stroke-linecap:round;stroke-linejoin:round"></path><path d="M315.64,234.62s11.23,12.46,32.08,8.65" style="fill:none;stroke:#263238;stroke-linecap:round;stroke-linejoin:round"></path></g><g id="freepik--character-2--inject-19"><rect x="288.32" y="399.01" width="4.76" height="2.47" transform="translate(-53.29 44.76) rotate(-8.07)" style="fill:#87A9E7;stroke:#263238;stroke-linecap:round;stroke-linejoin:round"></rect><path d="M310,425.1l5.55-.78-.39-2.73-4.89.7C309,422.45,308.42,424.09,310,425.1Z" style="fill:#87A9E7;stroke:#263238;stroke-linecap:round;stroke-linejoin:round"></path><path d="M303.07,376.56l5.55-.78-.39-2.73-4.89.7C302.15,373.91,301.54,375.55,303.07,376.56Z" style="fill:#87A9E7;stroke:#263238;stroke-linecap:round;stroke-linejoin:round"></path><path d="M310.74,449.8c6.3-.89,8.17-24.45,4.17-52.63s-12.33-50.29-18.63-49.39-8.17,24.45-4.18,52.63S304.44,450.7,310.74,449.8Zm-14.09-99.37c.61,0,3.61,2.11,7.48,12.54,3.38,9.11,6.27,21.39,8.14,34.58s2.5,25.79,1.79,35.48c-.82,11.12-3.13,14-3.7,14.13-.59,0-3.59-2.09-7.47-12.55-3.38-9.11-6.27-21.39-8.14-34.58s-2.5-25.79-1.79-35.48C293.78,353.46,296.08,350.59,296.65,350.43Z" style="fill:#87A9E7;stroke:#263238;stroke-linecap:round;stroke-linejoin:round"></path><path d="M290.1,348.65c-6.3.9-8.17,24.46-4.17,52.63s12.33,50.29,18.63,49.4,8.17-24.46,4.17-52.63S296.4,347.76,290.1,348.65Zm3.41,14.86c2.94,5.08,5.94,14.6,8.16,26.2a5.13,5.13,0,0,0-.76-1Zm-2.8-1.54c1,3.19,5.87,21.95,7.57,28.43a12.89,12.89,0,0,0-.33,2l-8.52-2.07C288.33,377.51,288.83,367,290.71,362Zm13.1,47.2a5.28,5.28,0,0,0,.46-1.15c1.09,11.76.85,21.74-.56,27.44ZM289.86,394.6l8.12,2.86c0,.68.13,1.37.23,2.08s.22,1.4.35,2.07l-7,5q-.51-2.92-.95-6T289.86,394.6Zm2.48,16.24,7.61-4.36a12.45,12.45,0,0,0,.86,1.82c.17,6.7.66,26.09.64,29.42C298.25,433.45,294.84,423.46,292.34,410.84Z" style="fill:#fff"></path><g style="clip-path:url(#freepik--clip-path-2--inject-19)"><g style="opacity:0.7000000000000001"><path d="M290.1,348.65c-6.3.9-8.17,24.46-4.17,52.63s12.33,50.29,18.63,49.4,8.17-24.46,4.17-52.63S296.4,347.76,290.1,348.65Zm3.41,14.86c2.94,5.08,5.94,14.6,8.16,26.2a5.13,5.13,0,0,0-.76-1Zm-2.8-1.54c1,3.19,5.87,21.95,7.57,28.43a12.89,12.89,0,0,0-.33,2l-8.52-2.07C288.33,377.51,288.83,367,290.71,362Zm13.1,47.2a5.28,5.28,0,0,0,.46-1.15c1.09,11.76.85,21.74-.56,27.44ZM289.86,394.6l8.12,2.86c0,.68.13,1.37.23,2.08s.22,1.4.35,2.07l-7,5q-.51-2.92-.95-6T289.86,394.6Zm2.48,16.24,7.61-4.36a12.45,12.45,0,0,0,.86,1.82c.17,6.7.66,26.09.64,29.42C298.25,433.45,294.84,423.46,292.34,410.84Z" style="fill:#87A9E7"></path></g></g><path d="M290.1,348.65c-6.3.9-8.17,24.46-4.17,52.63s12.33,50.29,18.63,49.4,8.17-24.46,4.17-52.63S296.4,347.76,290.1,348.65Zm3.41,14.86c2.94,5.08,5.94,14.6,8.16,26.2a5.13,5.13,0,0,0-.76-1Zm-2.8-1.54c1,3.19,5.87,21.95,7.57,28.43a12.89,12.89,0,0,0-.33,2l-8.52-2.07C288.33,377.51,288.83,367,290.71,362Zm13.1,47.2a5.28,5.28,0,0,0,.46-1.15c1.09,11.76.85,21.74-.56,27.44ZM289.86,394.6l8.12,2.86c0,.68.13,1.37.23,2.08s.22,1.4.35,2.07l-7,5q-.51-2.92-.95-6T289.86,394.6Zm2.48,16.24,7.61-4.36a12.45,12.45,0,0,0,.86,1.82c.17,6.7.66,26.09.64,29.42C298.25,433.45,294.84,423.46,292.34,410.84Z" style="fill:none;stroke:#263238;stroke-linecap:round;stroke-linejoin:round"></path><path d="M301.5,454.58c-4.69,0-9-5.28-13-16.09-3.61-9.56-6.68-22.47-8.65-36.34h0c-2-13.87-2.6-27.13-1.79-37.31,1-12.26,3.9-18.56,8.94-19.28s9.61,4.53,14,16c3.61,9.56,6.68,22.47,8.64,36.34s2.61,27.13,1.8,37.32c-1,12.25-3.9,18.55-8.94,19.27A7.07,7.07,0,0,1,301.5,454.58ZM288,352.62c-2.66,2.72-5.21,20.39-1.22,48.55s11.35,44.42,14.67,46.3c2.66-2.73,5.2-20.4,1.21-48.55S291.27,354.49,288,352.62Z" style="fill:#263238"></path><path d="M285.69,349.28c-6.3.89-8.17,24.45-4.18,52.63s12.34,50.29,18.64,49.39,8.17-24.45,4.17-52.63S292,348.39,285.69,349.28Zm12.38,96.79c-4.87.69-11.71-19.16-15.28-44.34s-2.51-46.16,2.36-46.85,11.71,19.17,15.28,44.35S302.94,445.38,298.07,446.07Z" style="fill:#fff"></path><g style="clip-path:url(#freepik--clip-path-3--inject-19)"><path d="M285.69,349.28c-6.3.89-8.17,24.45-4.18,52.63s12.34,50.29,18.64,49.39,8.17-24.45,4.17-52.63S292,348.39,285.69,349.28Zm12.38,96.79c-4.87.69-11.71-19.16-15.28-44.34s-2.51-46.16,2.36-46.85,11.71,19.17,15.28,44.35S302.94,445.38,298.07,446.07Z" style="fill:#87A9E7;opacity:0.4"></path></g><path d="M285.69,349.28c-6.3.89-8.17,24.45-4.18,52.63s12.34,50.29,18.64,49.39,8.17-24.45,4.17-52.63S292,348.39,285.69,349.28Zm12.38,96.79c-4.87.69-11.71-19.16-15.28-44.34s-2.51-46.16,2.36-46.85,11.71,19.17,15.28,44.35S302.94,445.38,298.07,446.07Z" style="fill:none;stroke:#263238;stroke-linecap:round;stroke-linejoin:round"></path><polygon points="263.26 404 301.22 404 300.01 396.39 263.26 396.39 263.26 404" style="fill:#1a2e35"></polygon><path d="M277.89,435.79H259.42a2.23,2.23,0,0,1,0-4.46h18.47a8.22,8.22,0,0,0,8.21-8.21V337.45a6.46,6.46,0,0,0-6.46-6.46H264.92a2.23,2.23,0,0,1,0-4.46h14.72a10.93,10.93,0,0,1,10.92,10.92v85.67A12.68,12.68,0,0,1,277.89,435.79Z" style="fill:#fff"></path><g style="clip-path:url(#freepik--clip-path-4--inject-19)"><path d="M277.89,435.79H259.42a2.23,2.23,0,0,1,0-4.46h18.47a8.22,8.22,0,0,0,8.21-8.21V337.45a6.46,6.46,0,0,0-6.46-6.46H264.92a2.23,2.23,0,0,1,0-4.46h14.72a10.93,10.93,0,0,1,10.92,10.92v85.67A12.68,12.68,0,0,1,277.89,435.79Z" style="fill:#87A9E7;opacity:0.4"></path></g><path d="M277.89,435.79H259.42a2.23,2.23,0,0,1,0-4.46h18.47a8.22,8.22,0,0,0,8.21-8.21V337.45a6.46,6.46,0,0,0-6.46-6.46H264.92a2.23,2.23,0,0,1,0-4.46h14.72a10.93,10.93,0,0,1,10.92,10.92v85.67A12.68,12.68,0,0,1,277.89,435.79Z" style="fill:none;stroke:#263238;stroke-linecap:round;stroke-linejoin:round"></path><path d="M288.62,323.42H272.83c-1,0-1.82,1.19-1.82,2.66s.81,2.66,1.82,2.66h15.79c1,0,1.83-1.19,1.83-2.66S289.63,323.42,288.62,323.42Z" style="fill:#263238"></path><path d="M272.28,328.62l16.77-5.12-5.68-1.43h0a1.22,1.22,0,0,0-.53-.13H267c-1,0-1.82,1.19-1.82,2.66a2.86,2.86,0,0,0,1.12,2.46h0l.18.08.16.07Z" style="fill:#263238"></path><path d="M261,344.76V272H181.31v75h2.78v11s70.67,36.78,104.18-1.09l-2.17-12.08Z" style="fill:#757575"></path><g style="clip-path:url(#freepik--clip-path-5--inject-19)"><path d="M261,282.82a105.41,105.41,0,0,0-36.14-6.41c-19.49.23-35.19,23.39-35.92,34.26s5.61,18,15.84,13.62,22.73-3.78,24.35,1.79-24.2,13.21-19.75,18.68,51.62,0,51.62,0Z" style="fill-opacity:0.7000000000000001;opacity:0.2"></path><path d="M188.89,347.75s20.91,16.18,49.35,17,52.46-20,52.46-20H261Z" style="fill-opacity:0.7000000000000001;opacity:0.2"></path></g><path d="M261,344.76V272H181.31v75h2.78v11s70.67,36.78,104.18-1.09l-2.17-12.08Z" style="fill:none;stroke:#263238;stroke-linecap:round;stroke-linejoin:round"></path><path d="M252.09,260.82h-.8a2.23,2.23,0,0,0,0,4.46h.8a7.78,7.78,0,0,1,7.77,7.77v87.19a1.77,1.77,0,0,0-.61-.08l-7,4.55-31.05,22.23L193.1,365.47l-6.51-4.37a2.23,2.23,0,0,0-1.32,4l32.1,24.54-33.28,25.89V273.05a12.23,12.23,0,0,0-12.22-12.23h-.81a2.23,2.23,0,0,0,0,4.46h.81a7.78,7.78,0,0,1,7.77,7.77v147a2.21,2.21,0,0,0,2.23,2.23,2.2,2.2,0,0,0,1.36-.47l37.71-29.33,39.83,29.37a2.23,2.23,0,0,0,3.55-1.8v-147A12.24,12.24,0,0,0,252.09,260.82Zm7.77,154.85-35.05-25.85,35.05-25.1Z" style="fill:#fff"></path><g style="clip-path:url(#freepik--clip-path-6--inject-19)"><g style="opacity:0.4"><path d="M252.09,260.82h-.8a2.23,2.23,0,0,0,0,4.46h.8a7.78,7.78,0,0,1,7.77,7.77v87.19a1.77,1.77,0,0,0-.61-.08l-7,4.55-31.05,22.23L193.1,365.47l-6.51-4.37a2.23,2.23,0,0,0-1.32,4l32.1,24.54-33.28,25.89V273.05a12.23,12.23,0,0,0-12.22-12.23h-.81a2.23,2.23,0,0,0,0,4.46h.81a7.78,7.78,0,0,1,7.77,7.77v147a2.21,2.21,0,0,0,2.23,2.23,2.2,2.2,0,0,0,1.36-.47l37.71-29.33,39.83,29.37a2.23,2.23,0,0,0,3.55-1.8v-147A12.24,12.24,0,0,0,252.09,260.82Zm7.77,154.85-35.05-25.85,35.05-25.1Z" style="fill:#87A9E7"></path></g></g><path d="M252.09,260.82h-.8a2.23,2.23,0,0,0,0,4.46h.8a7.78,7.78,0,0,1,7.77,7.77v87.19a1.77,1.77,0,0,0-.61-.08l-7,4.55-31.05,22.23L193.1,365.47l-6.51-4.37a2.23,2.23,0,0,0-1.32,4l32.1,24.54-33.28,25.89V273.05a12.23,12.23,0,0,0-12.22-12.23h-.81a2.23,2.23,0,0,0,0,4.46h.81a7.78,7.78,0,0,1,7.77,7.77v147a2.21,2.21,0,0,0,2.23,2.23,2.2,2.2,0,0,0,1.36-.47l37.71-29.33,39.83,29.37a2.23,2.23,0,0,0,3.55-1.8v-147A12.24,12.24,0,0,0,252.09,260.82Zm7.77,154.85-35.05-25.85,35.05-25.1Z" style="fill:none;stroke:#263238;stroke-linecap:round;stroke-linejoin:round"></path><path d="M263.43,229.31l5.32-6s.67-8.05,4-14.41S279.91,184,279.91,184s-4.41-3.56-4.78-5.62a24.65,24.65,0,0,1,0-5.24c0-1.5,3-1.69,3-1.69v-1.87l3.37-2.62a18.13,18.13,0,0,1,3.74,1.12c.94.56,4.31,2.06,4.31,2.06a2.63,2.63,0,0,1,1.68,1.87c.38,1.5-.65,11.24-2,13.3s-2.71,24.16-3.46,28.84-2.43,12.73-2.62,13.1c-.73,1.48-.88,5-8.55,14.8" style="fill:#fff;stroke:#263238;stroke-linecap:round;stroke-linejoin:round"></path><path d="M278.13,171.4a30.76,30.76,0,0,0,4.09,1.83c.53,0,.26,1.77-.53,1.94s-3,.88-3,.88,2.47.18,2.73,3.35" style="fill:none;stroke:#263238;stroke-linecap:round;stroke-linejoin:round"></path><path d="M279.77,172.22a22.7,22.7,0,0,1,1.74-1.9,20,20,0,0,1,2.21-1.32" style="fill:none;stroke:#263238;stroke-linecap:round;stroke-linejoin:round"></path><path d="M280.31,175.55c0,1.28,2.08,2.27,2.7,1.47,0,0,1.15,1.06,1.94,1.06a7.22,7.22,0,0,1,2.38,0c1.15.27,1.94-2.06,1.76-2.53s-1.14,0-1.14,0" style="fill:none;stroke:#263238;stroke-linecap:round;stroke-linejoin:round"></path><path d="M286.21,178c-.73-1.21-1.26-2.89-1-3.68s2.64-2.89,2.64-2.89" style="fill:none;stroke:#263238;stroke-linecap:round;stroke-linejoin:round"></path><path d="M283,177a25.68,25.68,0,0,0-.52-2.82" style="fill:none;stroke:#263238;stroke-linecap:round;stroke-linejoin:round"></path><path d="M282.22,173.23s2-2.64,2.93-3" style="fill:none;stroke:#263238;stroke-linecap:round;stroke-linejoin:round"></path><path d="M279.91,184c.75.89,2.31.54,2.31.54" style="fill:none;stroke:#263238;stroke-linecap:round;stroke-linejoin:round"></path><line x1="284.71" y1="185.8" x2="286.5" y2="186.37" style="fill:none;stroke:#263238;stroke-linecap:round;stroke-linejoin:round"></line><path d="M188.89,304s-3.65,10.76-3.6,12.87,3.44,7.14,6,7.45,14,0,15,0-.83-4.89-3.65-11l3.55-7.38Z" style="fill:#fff;stroke:#263238;stroke-linecap:round;stroke-linejoin:round"></path><path d="M268.28,324.28c2.82,3.67,2.7,5.32,2.7,5.32s-47.74,17.74-59.4,8.81c-2.1-1.61-.41-10.58-.41-10.58l-1.78-5.76s2.19-4.7-1.52-19.54l-1.77,8.14c-4.23-5.29-18.69-4.94-18.69-4.94s5.64-18,9.17-28.19,11.63-12.36,18.66-15.54,16.6-10.26,16.6-10.26,1.94,3,6,.08,28.57-27.1,28.57-27.1c1.41,6.09,12.88,12.48,12.88,12.48S267.45,255.66,265.69,261a35.63,35.63,0,0,0-.65,7.31c-.31,11.64.65,34.23,4.29,51.93A5,5,0,0,1,268.28,324.28Z" style="fill:#fff;stroke:#263238;stroke-linecap:round;stroke-linejoin:round"></path><path d="M279.28,237.2S267.45,255.66,265.69,261a35.63,35.63,0,0,0-.65,7.31c-9.29-13.07-22.65-12.36-22.65-12.36l-6.14,11.28-13-4s-10.2,13.64-10.13,17.17-5.24,22.18-5.24,22.18l-1.77,8.14c-4.23-5.29-18.69-4.94-18.69-4.94s5.64-18,9.17-28.19,11.63-12.36,18.66-15.54,16.6-10.26,16.6-10.26,1.94,3,6,.08,28.57-27.1,28.57-27.1C267.81,230.81,279.28,237.2,279.28,237.2Z" style="fill:#87A9E7"></path><g style="clip-path:url(#freepik--clip-path-7--inject-19)"><path d="M279.28,237.2S267.45,255.66,265.69,261a35.63,35.63,0,0,0-.65,7.31c-9.29-13.07-22.65-12.36-22.65-12.36l-6.14,11.28-13-4s-10.2,13.64-10.13,17.17-5.24,22.18-5.24,22.18l-1.77,8.14c-4.23-5.29-18.69-4.94-18.69-4.94s5.64-18,9.17-28.19,11.63-12.36,18.66-15.54,16.6-10.26,16.6-10.26,1.94,3,6,.08,28.57-27.1,28.57-27.1C267.81,230.81,279.28,237.2,279.28,237.2Z" style="fill-opacity:0.7000000000000001;opacity:0.2"></path></g><path d="M279.28,237.2S267.45,255.66,265.69,261a35.63,35.63,0,0,0-.65,7.31c-9.29-13.07-22.65-12.36-22.65-12.36l-6.14,11.28-13-4s-10.2,13.64-10.13,17.17-5.24,22.18-5.24,22.18l-1.77,8.14c-4.23-5.29-18.69-4.94-18.69-4.94s5.64-18,9.17-28.19,11.63-12.36,18.66-15.54,16.6-10.26,16.6-10.26,1.94,3,6,.08,28.57-27.1,28.57-27.1C267.81,230.81,279.28,237.2,279.28,237.2Z" style="fill:none;stroke:#263238;stroke-linecap:round;stroke-linejoin:round"></path><path d="M240.54,241.56V253.9l-5.64,10.46-14-4.24c.6-2.15.51-6.93.33-10.62-.14-2.75-.33-4.89-.33-4.89Z" style="fill:#fff;stroke:#263238;stroke-linecap:round;stroke-linejoin:round"></path><path d="M240.54,241.56v11.78a20,20,0,0,1-6.76,1.38c-4.44,0-9.78-3.31-12.54-5.22-.14-2.75-.33-4.89-.33-4.89Z" style="fill:#263238"></path><path d="M216,234.3s-3.48-1.82-3.92-.19.46.75,1.07,3.65,1.63,5.87,4.18,5.53S217.86,235.13,216,234.3Z" style="fill:#fff;stroke:#263238;stroke-linecap:round;stroke-linejoin:round"></path><path d="M240,231s2.55-3,3.56-1.64-.14.86.37,3.79.69,6-1.8,6.69S238.6,232.44,240,231Z" style="fill:#fff;stroke:#263238;stroke-linecap:round;stroke-linejoin:round"></path><path d="M226.32,215.81c17.34-2.22,16.5,24.41,15.75,28.57-.41,2.23-6.7,6.7-10.23,7.37-2.36.44-10.69-1.44-12.46-3.61C217.85,246.26,209,218,226.32,215.81Z" style="fill:#fff;stroke:#263238;stroke-linecap:round;stroke-linejoin:round"></path><path d="M231.31,226.39s3.26-2,4.94.62" style="fill:none;stroke:#263238;stroke-linecap:round;stroke-linejoin:round"></path><path d="M225.58,227a3.29,3.29,0,0,0-4.67,1.59" style="fill:none;stroke:#263238;stroke-linecap:round;stroke-linejoin:round"></path><path d="M235.13,229.84c.06.51-.19,1-.56,1s-.72-.33-.78-.85.18-1,.55-1S235.06,229.32,235.13,229.84Z" style="fill:#263238"></path><path d="M224.87,231.09c.06.52-.19,1-.56,1s-.72-.34-.78-.85.18-1,.56-1S224.81,230.58,224.87,231.09Z" style="fill:#263238"></path><path d="M229.86,228.2s-.27,3.44.7,4.85" style="fill:none;stroke:#263238;stroke-linecap:round;stroke-linejoin:round"></path><path d="M229.08,233.75s1.48-.49,2,0a14.59,14.59,0,0,1,1.54,2.14c.22.4-.75.84-.75.84" style="fill:none;stroke:#263238;stroke-linecap:round;stroke-linejoin:round"></path><path d="M228.58,236.73s.17-.42.5-.42" style="fill:none;stroke:#263238;stroke-linecap:round;stroke-linejoin:round"></path><path d="M235.81,239.62c-2.43,1.36-10.23,2-10.23,2s-.35,4.94,5.73,4C237.68,244.7,235.81,239.62,235.81,239.62Z" style="fill:none;stroke:#263238;stroke-linecap:round;stroke-linejoin:round"></path><path d="M219.26,220.51s3.65.36,5.65-.7v-1.18s3.43,1.35,5.65,1a11,11,0,0,1,3.9,0l-3.15-1.79s4.17.47,6.47,2.76l.76,4.29a22.35,22.35,0,0,1,3.43,7.89s-.61-11.41-2.72-14.12l1.64-.23s-3.17-4.23-7.11-5.53l2.47-.47s-11.81-2.58-15.34,1.41l-2.12-.82s-3.44,4.12-3,5.76a29.88,29.88,0,0,0-2.51,5.17c-.59,2,.59,9.61.59,9.61l2.52,4.33s.18-7,2.18-10.27C218.56,227.59,218.23,222.73,219.26,220.51Z" style="fill:#263238"></path><path d="M240.72,320.94C234.4,319.8,226,318,222,312.43" style="fill:none;stroke:#263238;stroke-linecap:round;stroke-linejoin:round"></path><path d="M256.56,322.48a100.27,100.27,0,0,1-12.23-1" style="fill:none;stroke:#263238;stroke-linecap:round;stroke-linejoin:round"></path><path d="M240.41,300.1a15,15,0,0,1-4.34,2.28" style="fill:none;stroke:#263238;stroke-linecap:round;stroke-linejoin:round"></path><path d="M253.39,285.81a67,67,0,0,1-10.1,11.93" style="fill:none;stroke:#263238;stroke-linecap:round;stroke-linejoin:round"></path><path d="M205.55,274.64s6.18,1.77,7.56,5.71" style="fill:none;stroke:#263238;stroke-linecap:round;stroke-linejoin:round"></path><path d="M212.16,294.63a12.61,12.61,0,0,1-1.67,4.93" style="fill:none;stroke:#263238;stroke-linecap:round;stroke-linejoin:round"></path><path d="M212.21,285.81a36.93,36.93,0,0,1,.24,5.36" style="fill:none;stroke:#263238;stroke-linecap:round;stroke-linejoin:round"></path><path d="M265.19,259.34c-.07.9-.11,1.82-.11,2.73" style="fill:none;stroke:#263238;stroke-linecap:round;stroke-linejoin:round"></path><path d="M266.2,253c-.22,1-.41,1.94-.57,2.92" style="fill:none;stroke:#263238;stroke-linecap:round;stroke-linejoin:round"></path><path d="M245.11,245.32s5.69-2.65,8.28-1" style="fill:none;stroke:#263238;stroke-linecap:round;stroke-linejoin:round"></path><path d="M188,304s6.54-2.82,9.89-1.59" style="fill:none;stroke:#263238;stroke-linecap:round;stroke-linejoin:round"></path><rect x="177.72" y="396.39" width="95.66" height="7.6" style="fill:#1a2e35"></rect><path d="M235.51,435.79H216.72a13.53,13.53,0,0,1-13.52-13.51V339.2A8.22,8.22,0,0,0,195,331h-4.21a2.23,2.23,0,0,1,0-4.46H195a12.68,12.68,0,0,1,12.67,12.67v83.08a9.06,9.06,0,0,0,9.06,9.05h18.79a2.23,2.23,0,0,1,0,4.46Z" style="fill:#fff"></path><g style="clip-path:url(#freepik--clip-path-8--inject-19)"><g style="opacity:0.4"><path d="M235.51,435.79H216.72a13.53,13.53,0,0,1-13.52-13.51V339.2A8.22,8.22,0,0,0,195,331h-4.21a2.23,2.23,0,0,1,0-4.46H195a12.68,12.68,0,0,1,12.67,12.67v83.08a9.06,9.06,0,0,0,9.06,9.05h18.79a2.23,2.23,0,0,1,0,4.46Z" style="fill:#87A9E7"></path></g></g><path d="M235.51,435.79H216.72a13.53,13.53,0,0,1-13.52-13.51V339.2A8.22,8.22,0,0,0,195,331h-4.21a2.23,2.23,0,0,1,0-4.46H195a12.68,12.68,0,0,1,12.67,12.67v83.08a9.06,9.06,0,0,0,9.06,9.05h18.79a2.23,2.23,0,0,1,0,4.46Z" style="fill:none;stroke:#263238;stroke-linecap:round;stroke-linejoin:round"></path><path d="M208.4,323.42H192.61c-1,0-1.83,1.19-1.83,2.66s.82,2.66,1.83,2.66H208.4c1,0,1.82-1.19,1.82-2.66S209.41,323.42,208.4,323.42Z" style="fill:#263238"></path><path d="M192.05,328.62l16.78-5.12-5.69-1.43h0a1.25,1.25,0,0,0-.53-.13H186.81c-1,0-1.83,1.19-1.83,2.66a2.87,2.87,0,0,0,1.13,2.46h0l.18.08.15.07Z" style="fill:#263238"></path><path d="M176.4,372l-5.57-.62-.3,2.74,4.91.54C176.63,374.76,177.64,373.32,176.4,372Z" style="fill:#87A9E7;stroke:#263238;stroke-linecap:round;stroke-linejoin:round"></path><path d="M171,420.7l-5.57-.62-.3,2.74,4.91.54C171.28,423.49,172.28,422.05,171,420.7Z" style="fill:#87A9E7;stroke:#263238;stroke-linecap:round;stroke-linejoin:round"></path><path d="M189.64,394.44l.57-4.38-9.63,2.68s7.08-31,7.32-31.36-1.71-2.41-1.71-2.41l-8.12,31.24,2.53,7.73Z" style="fill:#fff"></path><g style="clip-path:url(#freepik--clip-path-9--inject-19)"><path d="M189.64,394.44l.57-4.38-9.63,2.68s7.08-31,7.32-31.36-1.71-2.41-1.71-2.41l-8.12,31.24,2.53,7.73Z" style="fill:#87A9E7;opacity:0.6000000000000001"></path></g><path d="M189.64,394.44l.57-4.38-9.63,2.68s7.08-31,7.32-31.36-1.71-2.41-1.71-2.41l-8.12,31.24,2.53,7.73Z" style="fill:none;stroke:#263238;stroke-linecap:round;stroke-linejoin:round"></path><path d="M188.31,406.49l-8.06-5.38-4.15,7,1.14,32.25s2.37-1.6,2.2-2-.34-32.2-.34-32.2l8.82,4.7Z" style="fill:#fff"></path><g style="clip-path:url(#freepik--clip-path-10--inject-19)"><path d="M188.31,406.49l-8.06-5.38-4.15,7,1.14,32.25s2.37-1.6,2.2-2-.34-32.2-.34-32.2l8.82,4.7Z" style="fill:#87A9E7;opacity:0.6000000000000001"></path></g><path d="M188.31,406.49l-8.06-5.38-4.15,7,1.14,32.25s2.37-1.6,2.2-2-.34-32.2-.34-32.2l8.82,4.7Z" style="fill:none;stroke:#263238;stroke-linecap:round;stroke-linejoin:round"></path><path d="M179.68,454.76a5.63,5.63,0,0,1-.71,0c-5.07-.56-8.19-6.77-9.54-19-1.13-10.16-.91-23.43.62-37.35s4.2-26.93,7.51-36.6c4-11.63,8.39-17,13.44-16.46s8.18,6.77,9.54,19c1.13,10.16.9,23.42-.63,37.35s-4.19,26.92-7.5,36.59C188.62,449.35,184.45,454.76,179.68,454.76Zm10.54-102.34c-3.25,2-10.1,18.47-13.21,46.73s0,45.85,2.74,48.49c3.25-2,10.1-18.47,13.2-46.74h0C196.06,372.64,193,355.05,190.22,352.42Z" style="fill:#263238"></path><path d="M188,348.52c-6.33-.69-14,21.68-17.08,50s-.51,51.77,5.82,52.47,14-21.67,17.07-50S194.28,349.22,188,348.52Zm-9.52,90.57c-3.13-5-4.07-21.18-2-40s6.49-34.36,10.64-38.61c3.12,5,4.06,21.18,2,40S182.58,434.84,178.44,439.09Z" style="fill:#fff"></path><g style="clip-path:url(#freepik--clip-path-11--inject-19)"><path d="M176.44,399.09c-2.07,18.82-1.13,35,2,40a3,3,0,0,1-2.37,1.15c-4.71-.52-6.53-19.16-4.06-41.64s8.3-40.27,13-39.76a3,3,0,0,1,2.06,1.64C182.93,364.73,178.51,380.27,176.44,399.09Z" style="fill:#87A9E7;opacity:0.4"></path></g><path d="M188,348.52c-6.33-.69-14,21.68-17.08,50s-.51,51.77,5.82,52.47,14-21.67,17.07-50S194.28,349.22,188,348.52Zm-9.52,90.57c-3.13-5-4.07-21.18-2-40s6.49-34.36,10.64-38.61c3.12,5,4.06,21.18,2,40S182.58,434.84,178.44,439.09Z" style="fill:none;stroke:#263238;stroke-linecap:round;stroke-linejoin:round"></path><path d="M180.81,362.57c1.24-2.23,4.13-5.83,6.27-2.09" style="fill:none;stroke:#263238;stroke-linecap:round;stroke-linejoin:round"></path><path d="M176.8,372.8c.29-1,.6-1.93.92-2.89" style="fill:none;stroke:#263238;stroke-linecap:round;stroke-linejoin:round"></path><path d="M172.76,392.34a150.26,150.26,0,0,1,3.08-16" style="fill:none;stroke:#263238;stroke-linecap:round;stroke-linejoin:round"></path><path d="M170.77,419a142.61,142.61,0,0,1,1.43-22.62" style="fill:none;stroke:#263238;stroke-linecap:round;stroke-linejoin:round"></path><path d="M171.35,426.76c-.17-1.38-.3-2.77-.4-4.16" style="fill:none;stroke:#263238;stroke-linecap:round;stroke-linejoin:round"></path><path d="M178.44,439.09c-3.51,5.15-6.23-7-6.59-9" style="fill:none;stroke:#263238;stroke-linecap:round;stroke-linejoin:round"></path><path d="M178.64,393.23l-2.5-5.24a10.83,10.83,0,0,0-1.21,3.42l1.6,7.69-3.23,7.16a10.85,10.85,0,0,0,.43,3.59l3.58-4.57.26-6.07Z" style="fill:#fff"></path><g style="clip-path:url(#freepik--clip-path-12--inject-19)"><path d="M178.64,393.23l-2.5-5.24a10.83,10.83,0,0,0-1.21,3.42l1.6,7.69-3.23,7.16a10.85,10.85,0,0,0,.43,3.59l3.58-4.57.26-6.07Z" style="fill:#87A9E7;opacity:0.6000000000000001"></path></g><path d="M178.64,393.23l-2.5-5.24a10.83,10.83,0,0,0-1.21,3.42l1.6,7.69-3.23,7.16a10.85,10.85,0,0,0,.43,3.59l3.58-4.57.26-6.07Z" style="fill:none;stroke:#263238;stroke-linecap:round;stroke-linejoin:round"></path><path d="M181.44,399.64c-.66,6-2.59,10.78-4.3,10.59s-2.57-5.24-1.9-11.27,2.59-10.78,4.3-10.59S182.1,393.6,181.44,399.64Z" style="fill:#fff"></path><g style="clip-path:url(#freepik--clip-path-13--inject-19)"><path d="M181.44,399.64c-.66,6-2.59,10.78-4.3,10.59-1.08-.12-1.83-2.18-2-5.21a1,1,0,0,0,.66.35c1.71.19,3.64-4.56,4.31-10.59a33.16,33.16,0,0,0,.14-6.06C181.45,390,182,394.44,181.44,399.64Z" style="fill:#87A9E7;opacity:0.4"></path></g><path d="M181.44,399.64c-.66,6-2.59,10.78-4.3,10.59s-2.57-5.24-1.9-11.27,2.59-10.78,4.3-10.59S182.1,393.6,181.44,399.64Z" style="fill:none;stroke:#263238;stroke-linecap:round;stroke-linejoin:round"></path><path d="M186.42,356.69l-1.92-.21.42-3.83,1.92.21a1.93,1.93,0,0,1,1.7,2.13h0A1.91,1.91,0,0,1,186.42,356.69Z" style="fill:#87A9E7;stroke:#263238;stroke-linecap:round;stroke-linejoin:round"></path><path d="M188,402.3l-1.91-.21.42-3.83,1.91.21a1.93,1.93,0,0,1,1.71,2.13h0A1.92,1.92,0,0,1,188,402.3Z" style="fill:#87A9E7;stroke:#263238;stroke-linecap:round;stroke-linejoin:round"></path><path d="M178.18,444.39l-1.92-.21.42-3.83,1.92.21a1.92,1.92,0,0,1,1.7,2.13h0A1.92,1.92,0,0,1,178.18,444.39Z" style="fill:#87A9E7;stroke:#263238;stroke-linecap:round;stroke-linejoin:round"></path><path d="M181.75,347.84c-6.32-.7-14,21.67-17.08,50s-.5,51.78,5.82,52.48,14-21.67,17.08-50S188.08,348.54,181.75,347.84Zm-11,99.77c-.59-.15-3-2.94-4.14-14-1-9.66-.78-22.27.68-35.51s4-25.61,7-34.82c3.55-10.57,6.49-12.76,7.08-12.77s3,2.91,4.13,14c1,9.66.78,22.28-.68,35.52s-4,25.61-7,34.82C174.32,445.39,171.39,447.59,170.79,447.61Z" style="fill:#87A9E7;stroke:#263238;stroke-linecap:round;stroke-linejoin:round"></path><path d="M287.24,421.4a19.68,19.68,0,0,1-6.89,4.21c-3,.9-12.33.84-12.33.84l-13.1.89a7.57,7.57,0,0,1-.72-2c-1.23-5.68,1.38-15.46,1.38-15.46l14-3.37s.42,2,.95,3.85c.43,1.57.94,3.07,1.34,3.3.88.54,13.55,3.22,14.44,5A6.87,6.87,0,0,1,287.24,421.4Z" style="fill:#fff"></path><g style="clip-path:url(#freepik--clip-path-14--inject-19)"><path d="M264.46,415.68c.28,2.26-6.59,7.18-10.26,9.63-1.23-5.68,1.38-15.46,1.38-15.46l14-3.37s.42,2,.95,3.85C267.76,411.69,264.22,413.8,264.46,415.68Z" style="fill:#87A9E7;opacity:0.4"></path></g><path d="M287.24,421.4a19.68,19.68,0,0,1-6.89,4.21c-3,.9-12.33.84-12.33.84l-13.1.89a7.57,7.57,0,0,1-.72-2c-1.23-5.68,1.38-15.46,1.38-15.46l14-3.37s.42,2,.95,3.85c.43,1.57.94,3.07,1.34,3.3.88.54,13.55,3.22,14.44,5A6.87,6.87,0,0,1,287.24,421.4Z" style="fill:none;stroke:#263238;stroke-linecap:round;stroke-linejoin:round"></path><path d="M265.64,413.11c-1.46,1.22,1.68,2.56,1.68,2.56s4.94-1.86,6.05-1.56l-1.64-2.76A8.65,8.65,0,0,0,265.64,413.11Z" style="fill:#fff;stroke:#263238;stroke-linecap:round;stroke-linejoin:round"></path><path d="M270.9,416.91s3.38-3.21,4.62-3.42,3.6,1.31,3.6,1.31-3.16,1.66-3.51,2.8Z" style="fill:#fff;stroke:#263238;stroke-linecap:round;stroke-linejoin:round"></path><path d="M242.34,426.76l-20.51,2.39a10.94,10.94,0,0,1-1.58-4.47c-.06-1.63,3.39-7.89,4.75-10.83a5.23,5.23,0,0,0,.54-1.45c0-1.06,5-8.4,5-8.4l13.84,1.53s-.61,3.82-.87,5.82c-.2,1.49.68,4.47,1.31,7.36.22,1,.41,2,.52,2.88C245.77,425.14,242.34,426.76,242.34,426.76Z" style="fill:#fff"></path><g style="clip-path:url(#freepik--clip-path-15--inject-19)"><path d="M242.33,414.17s-9.34-2-13.9,0-2.72-1.22-1.13-2.82,13-1.1,14.59,0Z" style="fill:#fff;stroke:#263238;stroke-linecap:round;stroke-linejoin:round"></path><path d="M241.4,416.19c-.7-.35-7.05-1.11-9.43-1.39s-7,1.13-7.16,3.25,3,.17,4.87,0,12.65,1,12.65,1Z" style="fill:#fff;stroke:#263238;stroke-linecap:round;stroke-linejoin:round"></path><path d="M244.83,418.71c-1.75-1.93-5.45-5.3-10.43-6.15a17.18,17.18,0,0,0-9.4,1.29,5.23,5.23,0,0,0,.54-1.45c0-1.06,5-8.4,5-8.4l13.84,1.53s-.61,3.82-.87,5.82C243.32,412.84,244.2,415.82,244.83,418.71Z" style="fill:#87A9E7;opacity:0.4"></path></g><path d="M242.34,426.76l-20.51,2.39a10.94,10.94,0,0,1-1.58-4.47c-.06-1.63,3.39-7.89,4.75-10.83a5.23,5.23,0,0,0,.54-1.45c0-1.06,5-8.4,5-8.4l13.84,1.53s-.61,3.82-.87,5.82c-.2,1.49.68,4.47,1.31,7.36.22,1,.41,2,.52,2.88C245.77,425.14,242.34,426.76,242.34,426.76Z" style="fill:none;stroke:#263238;stroke-linecap:round;stroke-linejoin:round"></path><path d="M277,359.33c-.59,2.52-1.23,5.61-1.83,8.8h0c-1.52,8-2.85,16.64-3.1,18.55-.35,2.66-2.12,12.84-1.41,14.25s1.41,7.39,1.41,7.39a36,36,0,0,0-5.6-.62c-3.22.28-12.38,3.64-12.38,3.64s-1.77-4.77,0-9a12.1,12.1,0,0,0,.7-7.64l2.11-25.44c-1.75,8.18-4.58,19.82-4.58,19.82l-4.57,5.62,0,.11h0L245.35,408s-6.95,2.19-9.28,1.83c-2.15-.33-7.64-4.15-7.64-4.15l4.19-7.93a58.41,58.41,0,0,1,.28-8.68c1.07-8.84,2.21-18.08,2.79-22.72a.62.62,0,0,1,0-.09c.23-1.86.37-2.95.37-2.95s-20.45-2.94-23-8.95c-1.63-3.86-1.63-11.3-1.45-16.11a6.32,6.32,0,0,1,4.62-5.8,133.16,133.16,0,0,1,19.1-3.9l.69-.1c2-1.79,9.54-4.42,11.65-4.17a37.42,37.42,0,0,1,7.36,2.37h0l.49.22c9.07-.83,11.53.94,11.53.94s.83.35,2,.9c2.56,1.2,6.79,3.35,7.86,5C280.48,339.09,279.1,350.52,277,359.33Z" style="fill:#87A9E7"></path><g style="clip-path:url(#freepik--clip-path-16--inject-19)"><path d="M235.7,366.28c.23-1.86.37-2.95.37-2.95A21,21,0,0,1,235.7,366.28Z" style="fill-opacity:0.7000000000000001;opacity:0.2"></path><path d="M236.07,363.33s-20.45-2.94-23-8.95c-1.63-3.86-1.63-11.3-1.45-16.11a6.32,6.32,0,0,1,4.62-5.8,133.16,133.16,0,0,1,19.1-3.9c-5.9,4.16-11.43,7.84-11.43,7.84l.86-3.7s-9.12,8.36-9.86,12.05c-2.47,12.4,12.7,17.57,11.29,14.1s1.94-11.87,2.19-10.35c.17,1,1.93,3.76,2.73,5-.36-1.9,1.74-6.92,1.74-6.92a17.55,17.55,0,0,0,1.95,8.33A17.62,17.62,0,0,1,236.07,363.33Z" style="fill-opacity:0.7000000000000001;opacity:0.2"></path><path d="M255.09,326.67l.49.22c9.07-.83,11.53.94,11.53.94s.83.35,2,.9c-2.83,0-6.07.81-8.14,3.81A33.85,33.85,0,0,0,255.09,326.67Z" style="fill-opacity:0.7000000000000001;opacity:0.2"></path><path d="M272,386.69c-.35,2.66-2.12,12.84-1.41,14.25s1.41,7.39,1.41,7.39a36,36,0,0,0-5.6-.62c-3.22.28-12.38,3.64-12.38,3.64s-1.77-4.77,0-9a12.1,12.1,0,0,0,.7-7.64l2.11-25.44c-1.75,8.18-4.58,19.82-4.58,19.82l-4.57,5.62,0,.11c0-2.3,0-4.29,0-5.75.3-7.34,11.49-52.13,13.78-50.54s.68,5.58.94,10.1,2.94,23.93,2.77,28.56-2.77-1.64-2.77-1.64S260.8,395.3,261,399.3s3.19-2.58,6.08-3.82,2-12,2.28-13.22c.1-.53,2.78-6.95,5.82-14.12C273.62,376.13,272.29,384.78,272,386.69Z" style="fill-opacity:0.7000000000000001;opacity:0.2"></path></g><path d="M277,359.33c-.59,2.52-1.23,5.61-1.83,8.8h0c-1.52,8-2.85,16.64-3.1,18.55-.35,2.66-2.12,12.84-1.41,14.25s1.41,7.39,1.41,7.39a36,36,0,0,0-5.6-.62c-3.22.28-12.38,3.64-12.38,3.64s-1.77-4.77,0-9a12.1,12.1,0,0,0,.7-7.64l2.11-25.44c-1.75,8.18-4.58,19.82-4.58,19.82l-4.57,5.62,0,.11h0L245.35,408s-6.95,2.19-9.28,1.83c-2.15-.33-7.64-4.15-7.64-4.15l4.19-7.93a58.41,58.41,0,0,1,.28-8.68c1.07-8.84,2.21-18.08,2.79-22.72a.62.62,0,0,1,0-.09c.23-1.86.37-2.95.37-2.95s-20.45-2.94-23-8.95c-1.63-3.86-1.63-11.3-1.45-16.11a6.32,6.32,0,0,1,4.62-5.8,133.16,133.16,0,0,1,19.1-3.9l.69-.1c2-1.79,9.54-4.42,11.65-4.17a37.42,37.42,0,0,1,7.36,2.37h0l.49.22c9.07-.83,11.53.94,11.53.94s.83.35,2,.9c2.56,1.2,6.79,3.35,7.86,5C280.48,339.09,279.1,350.52,277,359.33Z" style="fill:none;stroke:#263238;stroke-linecap:round;stroke-linejoin:round"></path><path d="M255.58,326.89c2.71,2.12,6.47,4.82,7.29,8.7s-3.14,21.13-6,33.68" style="fill:none;stroke:#263238;stroke-linecap:round;stroke-linejoin:round"></path><path d="M236.07,363.33c1-5.33-2.7-11.64-3.17-12s-.71-4,.94-6.58" style="fill:none;stroke:#263238;stroke-linecap:round;stroke-linejoin:round"></path><path d="M228.43,350.63s.47,5.29,1.53,6.59,5.5,2.07,5.5,2.07" style="fill:none;stroke:#263238;stroke-linecap:round;stroke-linejoin:round"></path><path d="M236.07,328.47s-5.52,5.12-5.52,6.53" style="fill:none;stroke:#263238;stroke-linecap:round;stroke-linejoin:round"></path><path d="M264.05,329.71a8.31,8.31,0,0,0-3.1,2" style="fill:none;stroke:#263238;stroke-linecap:round;stroke-linejoin:round"></path><path d="M265.11,379.2c-1.77-2.47-5.32-22.93-5.32-22.93" style="fill:none;stroke:#263238;stroke-linecap:round;stroke-linejoin:round"></path><path d="M270.63,400.94c-2.47-1.29-12.34,3.06-12.34,3.06" style="fill:none;stroke:#263238;stroke-linecap:round;stroke-linejoin:round"></path><path d="M247.72,394.71s-7.3,4-8.59,3.76-3.06-3.76-3.06-3.76" style="fill:none;stroke:#263238;stroke-linecap:round;stroke-linejoin:round"></path><path d="M244.71,423.19h-16c-4,0-9.12,3.12-11.53,7-1.13,1.81-.54,3.28,1.33,3.28h23.55a7.32,7.32,0,0,0,5.43-3.28C249.92,426.31,248.66,423.19,244.71,423.19Z" style="fill:#263238"></path><path d="M280.05,423.19h-16c-4,0-9.12,3.12-11.52,7-1.14,1.81-.55,3.28,1.32,3.28h23.55a7.33,7.33,0,0,0,5.44-3.28C285.26,426.31,284,423.19,280.05,423.19Z" style="fill:#263238"></path><path d="M185.68,318.38c2.07,6.72,7.92,6.28,7.92,6.28l11.12-8s-.87-4.26-6.87-6" style="fill:#fff;stroke:#263238;stroke-linecap:round;stroke-linejoin:round"></path><path d="M195.87,317.26c2.95-2,8-1.28,8-1.28,1.58-.18,3.83-1.07,5,0s1.59,1.94,3.33,4.41-1.94,7.48-1.94,7.48-2.46,1.06-2.14-.8c0,0-.83,3.18-3.35,1.6,0,0-.88,1-2.47,0a2,2,0,0,1-3.1-.44l-.09-1.8s-7.39.44-6.42-5.69" style="fill:#fff;stroke:#263238;stroke-linecap:round;stroke-linejoin:round"></path><path d="M208.08,327.07s.74-1.92,1.31-3.21-1.31-4.77-1.31-4.77" style="fill:none;stroke:#263238;stroke-linecap:round;stroke-linejoin:round"></path><path d="M204.73,328.67c-.11-.36,1-4.83.84-5.59a16.35,16.35,0,0,0-1.72-2.93" style="fill:none;stroke:#263238;stroke-linecap:round;stroke-linejoin:round"></path><path d="M200.85,321.56c.35.71,1.47,2.32,1.41,3.19s-.41,3.51,0,3.92" style="fill:none;stroke:#263238;stroke-linecap:round;stroke-linejoin:round"></path><path d="M199,327.87a10.2,10.2,0,0,1,.13-2.19,3.82,3.82,0,0,1-1.31-1.9" style="fill:none;stroke:#263238;stroke-linecap:round;stroke-linejoin:round"></path></g><g id="freepik--character-1--inject-19"><path d="M135.76,382.72a192.6,192.6,0,0,0-4.62,25.42c-1.59,13.15-1.92,23.72-1.92,23.72l-8.12,3.67s-2.06-16.49-2-27c0-.73,0-1.43,0-2.1a121.42,121.42,0,0,1,2.6-20.17l1.36-29.69.1-2.13,10.3-.78.16,2.06Z" style="fill:#fff;stroke:#263238;stroke-linecap:round;stroke-linejoin:round"></path><path d="M135.76,382.72a192.6,192.6,0,0,0-4.62,25.42,24.56,24.56,0,0,0-12.09.38c0-.73,0-1.43,0-2.1a121.42,121.42,0,0,1,2.6-20.17l1.36-29.69,10.56-.85Z" style="fill:#263238"></path><path d="M173,431.82l-7.17,5.28s-3.89-11.15-6.42-20.82c-.68-2.59-1.26-5.08-1.64-7.22A121,121,0,0,1,156,388.8L154,372.05l9.9-2.92,5.21,13.27a193,193,0,0,0,.85,26.35C171.11,421.69,173,431.82,173,431.82Z" style="fill:#fff;stroke:#263238;stroke-linecap:round;stroke-linejoin:round"></path><path d="M169.91,408.75a64,64,0,0,1-10.55,7.53c-.68-2.59-1.26-5.08-1.64-7.22A121,121,0,0,1,156,388.8L154,372.05l9.9-2.92,5.21,13.27A193,193,0,0,0,169.91,408.75Z" style="fill:#263238"></path><path d="M168.13,143.84s.82,2.65-.7,14.07l7.9-4.75c0-4.41,0-8.12.38-8.9.86-1.94.81-10.7.37-12a2.23,2.23,0,0,0-1.51-1.53s-2.82-1.07-3.62-1.49a13.25,13.25,0,0,0-3.09-.7l-2.45,2.61.17,1.66s-2.37.41-2.24,1.75a25.19,25.19,0,0,0,.47,4.67C164.3,141,168.13,143.84,168.13,143.84Z" style="fill:#fff;stroke:#263238;stroke-linecap:round;stroke-linejoin:round"></path><path d="M165.58,132.8a23.89,23.89,0,0,0,3.43,1.31c.42-.05.37,1.55-.25,1.77s-2.31,1-2.31,1,2,0,2.48,2.77" style="fill:none;stroke:#263238;stroke-linecap:round;stroke-linejoin:round"></path><path d="M167,133.4a20.77,20.77,0,0,1,1.21-1.83,17.16,17.16,0,0,1,1.64-1.35" style="fill:none;stroke:#263238;stroke-linecap:round;stroke-linejoin:round"></path><path d="M167.69,136.33c.13,1.13,1.87,1.85,2.29,1.09,0,0,1,.85,1.64.79a4.85,4.85,0,0,1,1.9-.19c.94.14,1.36-2,1.18-2.4s-.92.09-.92.09" style="fill:none;stroke:#263238;stroke-linecap:round;stroke-linejoin:round"></path><path d="M172.61,138a5.62,5.62,0,0,1-1.12-3.2,12.78,12.78,0,0,1,1.85-2.79" style="fill:none;stroke:#263238;stroke-linecap:round;stroke-linejoin:round"></path><path d="M170,137.42s-.36-1.63-.67-2.47" style="fill:none;stroke:#263238;stroke-linecap:round;stroke-linejoin:round"></path><path d="M169,134.11s1.34-2.52,2.06-2.91" style="fill:none;stroke:#263238;stroke-linecap:round;stroke-linejoin:round"></path><path d="M168.13,143.84a1.91,1.91,0,0,0,1.89.3" style="fill:none;stroke:#263238;stroke-linecap:round;stroke-linejoin:round"></path><line x1="172.13" y1="145.1" x2="173.6" y2="145.47" style="fill:none;stroke:#263238;stroke-linecap:round;stroke-linejoin:round"></line><path d="M92.59,319.58c.27.72,4.22,25.51,1.06,30.26s-3.57-27.23-3.57-27.23" style="fill:none;stroke:#263238;stroke-miterlimit:10;stroke-width:2px"></path><polygon points="84.68 321.34 43.27 454.76 45.12 454.76 87.85 324.81 84.68 321.34" style="fill:#757575;stroke:#263238;stroke-linecap:round;stroke-linejoin:round"></polygon><path d="M113.88,182s-7.72-1.49-9.83,6.31,1.59,28,0,32.42.72,10.43,4.58,9.78c0,0-1.87-1.39-.58-4.18s4.18-8.46,3.92-12.88c0,0,1,8.33-1.59,12.12,0,0,5.62-9.29,4.62-17.75S113.88,182,113.88,182Z" style="fill:#263238"></path><path d="M135.19,183.14s-1.53-7.39-12-6.44-18,9.22-14.11,21.7,12.48,17.19,18.9,14.18,9.1-.18,12.09-5.36S140.75,187.56,135.19,183.14Z" style="fill:#263238"></path><path d="M176,191.86c0,.12-2.2,4.9-5.26,11.46-3.64,7.83-8.53,18.18-12.53,26.22-3.4,6.85-6.15,12-6.91,12.46l2.38-35.59A85.19,85.19,0,0,0,164.14,186c1.32-4.14,3.29-35.47,3.29-35.47,3.64,1.18,8.62,0,8.62,0S177,186.07,176,191.86Z" style="fill:#87A9E7"></path><g style="clip-path:url(#freepik--clip-path-17--inject-19)"><path d="M170.7,203.32c-3.64,7.83-8.53,18.18-12.53,26.22-.75-1.09-1.22-1.81-1.22-1.81s4-10.88,3.56-17,3.36-2.57,1.58,4.74C162.09,215.46,166.82,208.37,170.7,203.32Z" style="fill-opacity:0.7000000000000001;opacity:0.2"></path></g><path d="M176,191.86c0,.12-2.2,4.9-5.26,11.46-3.64,7.83-8.53,18.18-12.53,26.22-3.4,6.85-6.15,12-6.91,12.46l2.38-35.59A85.19,85.19,0,0,0,164.14,186c1.32-4.14,3.29-35.47,3.29-35.47,3.64,1.18,8.62,0,8.62,0S177,186.07,176,191.86Z" style="fill:none;stroke:#263238;stroke-linecap:round;stroke-linejoin:round"></path><path d="M163.25,431.29s3.28-2.68,10.75-2.15c0,0,1.57,9.33,2.89,12s7.14,7.41,8.22,8.22S186.5,453,186.5,453H164a76,76,0,0,1,.46-12Z" style="fill:#fff"></path><g style="clip-path:url(#freepik--clip-path-18--inject-19)"><path d="M163.25,431.29s3.28-2.68,10.75-2.15c0,0,1.57,9.33,2.89,12s7.14,7.41,8.22,8.22S186.5,453,186.5,453H164a76,76,0,0,1,.46-12Z" style="fill:#87A9E7;opacity:0.4"></path></g><path d="M163.25,431.29s3.28-2.68,10.75-2.15c0,0,1.57,9.33,2.89,12s7.14,7.41,8.22,8.22S186.5,453,186.5,453H164a76,76,0,0,1,.46-12Z" style="fill:none;stroke:#263238;stroke-linecap:round;stroke-linejoin:round"></path><path d="M168,432.5s1.49,8.58,3,10.81a18.35,18.35,0,0,0,2.88,3.4s1.54,0,.24,2.17" style="fill:none;stroke:#263238;stroke-linecap:round;stroke-linejoin:round"></path><path d="M172.1,445.91s4.47-2.89,8.13-.71" style="fill:none;stroke:#263238;stroke-linecap:round;stroke-linejoin:round"></path><path d="M170.72,443.94a7.37,7.37,0,0,1,7.16-1.23" style="fill:none;stroke:#263238;stroke-linecap:round;stroke-linejoin:round"></path><path d="M169,441a7,7,0,0,1,7.28-1.06" style="fill:none;stroke:#263238;stroke-linecap:round;stroke-linejoin:round"></path><path d="M168.06,437.22s4.1-2.47,7.49-.6" style="fill:none;stroke:#263238;stroke-linecap:round;stroke-linejoin:round"></path><path d="M164,453l.2,1.74h2.58a4.26,4.26,0,0,1,4.32,0h12.14a7.82,7.82,0,0,0,3.6-.87l-.35-.87Z" style="fill:#87A9E7;stroke:#263238;stroke-linecap:round;stroke-linejoin:round"></path><path d="M119.46,432.4s3.57-2.55,11-2c0,0,.54,8.88,1.55,11.47s6.32,7.05,7.3,7.82,1,3.45,1,3.45H117.8a71.3,71.3,0,0,1,1.78-11.41Z" style="fill:#fff"></path><g style="clip-path:url(#freepik--clip-path-19--inject-19)"><path d="M119.46,432.4s3.57-2.55,11-2c0,0,.54,8.88,1.55,11.47s6.32,7.05,7.3,7.82,1,3.45,1,3.45H117.8a71.3,71.3,0,0,1,1.78-11.41Z" style="fill:#87A9E7;opacity:0.4"></path></g><path d="M119.46,432.4s3.57-2.55,11-2c0,0,.54,8.88,1.55,11.47s6.32,7.05,7.3,7.82,1,3.45,1,3.45H117.8a71.3,71.3,0,0,1,1.78-11.41Z" style="fill:none;stroke:#263238;stroke-linecap:round;stroke-linejoin:round"></path><path d="M124.1,433.55s.53,8.18,1.8,10.31a14.67,14.67,0,0,0,2.49,3.23s1.54,0,0,2.07" style="fill:none;stroke:#263238;stroke-linecap:round;stroke-linejoin:round"></path><path d="M126.67,446.33s4.8-2.76,8.21-.68" style="fill:none;stroke:#263238;stroke-linecap:round;stroke-linejoin:round"></path><path d="M125.52,444.46a8.14,8.14,0,0,1,7.29-1.18" style="fill:none;stroke:#263238;stroke-linecap:round;stroke-linejoin:round"></path><path d="M124.1,441.61s3.6-2.8,7.4-1" style="fill:none;stroke:#263238;stroke-linecap:round;stroke-linejoin:round"></path><path d="M123.61,438.05s4.37-2.35,7.55-.57" style="fill:none;stroke:#263238;stroke-linecap:round;stroke-linejoin:round"></path><path d="M117.8,453.1v1.66h2.57a4.52,4.52,0,0,1,4.32,0h12.14a8.85,8.85,0,0,0,3.71-.83l-.26-.83Z" style="fill:#87A9E7;stroke:#263238;stroke-linecap:round;stroke-linejoin:round"></path><path d="M162.51,268.86s7.09,28.22,16.3,132.6c0,0-30.86,9.07-65.26,2.59,0,0,2.52-5.76,3-32.88S115,299.7,130.05,277.79Z" style="fill:#757575;stroke:#263238;stroke-linecap:round;stroke-linejoin:round"></path><path d="M163.69,268.51c.4,2.8-19.71,13-31,12.83a11.7,11.7,0,0,1-3.67-.55c-2.67-.92-1.4-12.21-1.4-12.21s-7.32-9.31-13.11-17.39c-3.56-5-6.54-9.49-6.88-11.09-.54-2.53,7.64-10,14.14-14.21,21.55-13.86,31.84-19.48,31.84-19.48s2.32,2.54,3.31,8l1,8.44c1.72,7,3.38,14.33,3.75,18.21.84,8.66-1.18,18.83-1.18,18.83S163.25,265.38,163.69,268.51Z" style="fill:#87A9E7"></path><g style="clip-path:url(#freepik--clip-path-20--inject-19)"><path d="M132.72,281.34a11.7,11.7,0,0,1-3.67-.55c-2.67-.92-1.4-12.21-1.4-12.21s-7.32-9.31-13.11-17.39l.58-1.35s4.23.83,8.09,6.77,4.32,9.87,7.4,9.87c6.16,0,18.95-26.1,13.86-7.33-3.06,11.3-13.06,11.5-13.06,11.5s10.48,3.17,13.06,3.17C146.34,273.82,139.83,280.08,132.72,281.34Z" style="fill-opacity:0.7000000000000001;opacity:0.2"></path></g><path d="M163.69,268.51c.4,2.8-19.71,13-31,12.83a11.7,11.7,0,0,1-3.67-.55c-2.67-.92-1.4-12.21-1.4-12.21s-7.32-9.31-13.11-17.39c-3.56-5-6.54-9.49-6.88-11.09-.54-2.53,7.64-10,14.14-14.21,21.55-13.86,31.84-19.48,31.84-19.48s2.32,2.54,3.31,8l1,8.44c1.72,7,3.38,14.33,3.75,18.21.84,8.66-1.18,18.83-1.18,18.83S163.25,265.38,163.69,268.51Z" style="fill:none;stroke:#263238;stroke-linecap:round;stroke-linejoin:round"></path><path d="M107.66,240.1c-3.34,11.14-4.51,28.49-4.77,33.06S93,304,92.19,306.24s-2.11,6.06-2.11,6.06l6.07,4.57s13.92-30.94,14.95-34S118,256.5,118,256.5s-.53-11.54-3-13.81" style="fill:#87A9E7;stroke:#263238;stroke-linecap:round;stroke-linejoin:round"></path><path d="M90.08,312.3s-5.35,3.28-6.82,4.44S82,323.57,82,323.57s-3,2.86.48,4.93a41.93,41.93,0,0,1,3.93-3.42c1.46-.27-.07,4.38-.07,4.38.34,1.19,7.23-4,8-4.81s1.81-7.78,1.81-7.78S94,312.17,90.08,312.3Z" style="fill:#fff;stroke:#263238;stroke-linecap:round;stroke-linejoin:round"></path><path d="M84.55,323.47A2.91,2.91,0,0,1,83.46,321c.1-.76-1.09-2.45-1.09-2.45" style="fill:#fff;stroke:#263238;stroke-linecap:round;stroke-linejoin:round"></path><path d="M86.39,325.08c2.31-.23,2.51.66,2.51.66" style="fill:#fff;stroke:#263238;stroke-linecap:round;stroke-linejoin:round"></path><path d="M164.63,183.5s6.16-.65,6.16,4.88" style="fill:none;stroke:#263238;stroke-linecap:round;stroke-linejoin:round"></path><path d="M102.61,274.84s2,6.48,5,4.9" style="fill:none;stroke:#263238;stroke-linecap:round;stroke-linejoin:round"></path><path d="M160.51,259.86s-2.77,11.39-12.07,12.38" style="fill:none;stroke:#263238;stroke-linecap:round;stroke-linejoin:round"></path><path d="M123.21,230.57s16.33,2.52,19.1-2.83" style="fill:none;stroke:#263238;stroke-linecap:round;stroke-linejoin:round"></path><path d="M152.59,247s-7-1-12.5,10.42" style="fill:none;stroke:#263238;stroke-linecap:round;stroke-linejoin:round"></path><path d="M160.51,298.92s-22.76,34.6-27.21,63" style="fill:none;stroke:#263238;stroke-linecap:round;stroke-linejoin:round"></path><path d="M164,375s-2.7,13-28.82,17.75" style="fill:none;stroke:#263238;stroke-linecap:round;stroke-linejoin:round"></path><path d="M140.55,215.7s-2,14.82-19.87,11.57c0,0,3.95-3.17,4.34-5.05s-4.33-17.35-4.33-17.35l10.14,3.46,3.6,1.23s-.65,4.82,1.08,6.82a3.47,3.47,0,0,0,.45.41C136.86,217.44,140.55,215.7,140.55,215.7Z" style="fill:#fff;stroke:#263238;stroke-linecap:round;stroke-linejoin:round"></path><path d="M135.51,216.38c-5.65,2.12-12.3-7.25-12.3-7.25a62.48,62.48,0,0,1,7.62-.8l3.6,1.23S133.78,214.38,135.51,216.38Z" style="fill:#263238"></path><path d="M123.7,179.62c14.07-3.53,15.75,18.65,16.38,24.07.24,2-3.17,9.58-5.86,10.13-2.11.43-11.48-2.56-12.84-4.84C117.77,202.91,107.87,183.59,123.7,179.62Z" style="fill:#fff;stroke:#263238;stroke-linecap:round;stroke-linejoin:round"></path><path d="M131.41,193.11c.38.92.7,3.85,3.26,4.93,1.65.7-1.1,2.45-1.1,2.45" style="fill:none;stroke:#263238;stroke-linecap:round;stroke-linejoin:round"></path><path d="M130.32,188.77a6.21,6.21,0,0,1,5.45.41" style="fill:none;stroke:#263238;stroke-linecap:round;stroke-linejoin:round"></path><path d="M125.67,190.46a13.41,13.41,0,0,0-4.91,2.48" style="fill:none;stroke:#263238;stroke-linecap:round;stroke-linejoin:round"></path><path d="M135.42,194a1,1,0,0,1-.55,1.22c-.42.08-.86-.32-1-.9s.13-1.13.55-1.21S135.3,193.4,135.42,194Z" style="fill:#263238"></path><path d="M126.4,196.5c.12.58-.13,1.13-.55,1.21s-.86-.31-1-.89.12-1.13.55-1.22S126.28,195.92,126.4,196.5Z" style="fill:#263238"></path><path d="M135.06,204.09a16.73,16.73,0,0,1-7.06-.28s.87,3.61,4.06,3.4c2.45-.17,2.5-3,2.5-3" style="fill:none;stroke:#263238;stroke-linecap:round;stroke-linejoin:round"></path><path d="M119.91,184.37s4,9.7-3.61,16.15l-7.2-8.25,12.53-14.64c14.31-3.64,23.16,3.14,22.83,28.87C144.46,206.5,137.75,178.14,119.91,184.37Z" style="fill:#263238"></path><path d="M118.36,200.32c-.24-1.15-4-3.1-4.36-1-.63,3.65,1.43,6,3.46,6.51.91.23,2.16.82,2.56-.24" style="fill:#fff;stroke:#263238;stroke-linecap:round;stroke-linejoin:round"></path><path d="M116.93,198.13l4.67-3.59s3.63-2.51,6.53-1.85l2.7-.4a11.61,11.61,0,0,1,2.52-1.21c1.06-.18,2.94-.66,3.88.28l1.19.45.11,1.77-1,.14s.14,3-1.76,3.37c-2.1.43-4.18-2.51-4.18-2.51s-1.78-.07-2,.76c0,0,.55,3.12-2.36,3.84s-5.22-2.84-5.22-2.84l-4.79,2.79Z" style="fill:#263238"></path></g></svg>